<svg width="469" height="469" viewBox="0 0 469 469" fill="none" xmlns="http://www.w3.org/2000/svg">
<path d="M469 358.689H0V358.924H469V358.689Z" fill="#EBEBEB"/>
<path d="M422.007 373.787H390.939V374.022H422.007V373.787Z" fill="#EBEBEB"/>
<path d="M310.684 376.333H302.53V376.568H310.684V376.333Z" fill="#EBEBEB"/>
<path d="M390 365.077H371.998V365.312H390V365.077Z" fill="#EBEBEB"/>
<path d="M89.7216 366.653H49.2065V366.887H89.7216V366.653Z" fill="#EBEBEB"/>
<path d="M104.014 366.653H98.0735V366.887H104.014V366.653Z" fill="#EBEBEB"/>
<path d="M211.188 370.614H123.32V370.849H211.188V370.614Z" fill="#EBEBEB"/>
<path d="M222.319 316.856H41.1922C38.2404 316.856 35.8381 314.454 35.8381 311.502V56.8991C35.8381 53.9472 38.2404 51.545 41.1922 51.545H222.319C225.27 51.545 227.672 53.9472 227.672 56.8991V311.502C227.672 314.454 225.27 316.856 222.319 316.856ZM41.1922 51.7804C38.3689 51.7804 36.0726 54.0766 36.0726 56.9V311.503C36.0726 314.327 38.3689 316.623 41.1922 316.623H222.319C225.142 316.623 227.438 314.327 227.438 311.503V56.8991C227.438 54.0766 225.142 51.7795 222.319 51.7795L41.1922 51.7804Z" fill="#EBEBEB"/>
<path d="M425.205 316.856H244.079C241.127 316.856 238.726 314.454 238.726 311.502V56.8991C238.726 53.9472 241.128 51.545 244.079 51.545H425.205C428.158 51.545 430.559 53.9472 430.559 56.8991V311.502C430.56 314.454 428.158 316.856 425.205 316.856ZM244.079 51.7804C241.256 51.7804 238.96 54.0766 238.96 56.9V311.503C238.96 314.327 241.256 316.623 244.079 316.623H425.205C428.028 316.623 430.324 314.327 430.324 311.503V56.8991C430.324 54.0766 428.028 51.7795 425.205 51.7795L244.079 51.7804Z" fill="#EBEBEB"/>
<path d="M369.506 137.236L267.411 102.753L267.332 102.673L213.393 47.3878L170.136 86.8963L169.504 86.2041L213.431 46.083L267.925 101.937L369.153 136.126L410.701 78.9683L411.459 79.5189L369.506 137.236Z" fill="#DFFF7E"/>
<path d="M52.165 222.107C52.165 224.894 49.9054 227.154 47.1186 227.154C44.3318 227.154 42.0721 224.895 42.0721 222.107C42.0721 219.319 44.3308 217.061 47.1186 217.061C49.9063 217.061 52.165 219.32 52.165 222.107Z" fill="#D5EF85" fill-opacity="0.3"/>
<path d="M218.457 46.7349C218.457 49.5217 216.198 51.7814 213.411 51.7814C210.624 51.7814 208.365 49.5217 208.365 46.7349C208.365 43.9481 210.624 41.6885 213.411 41.6885C216.198 41.6885 218.457 43.9481 218.457 46.7349Z" fill="#D5EF85" fill-opacity="0.5"/>
<path d="M416.126 79.2432C416.126 82.03 413.866 84.2896 411.08 84.2896C408.293 84.2896 406.033 82.03 406.033 79.2432C406.033 76.4564 408.293 74.1967 411.08 74.1967C413.866 74.1967 416.126 76.4564 416.126 79.2432Z" fill="#D5EF85" fill-opacity="0.5"/>
<path d="M416.565 345.545C416.565 348.332 414.305 350.592 411.518 350.592C408.732 350.592 406.472 348.332 406.472 345.545C406.472 342.758 408.732 340.499 411.518 340.499C414.306 340.499 416.565 342.758 416.565 345.545Z" fill="#D5EF85" fill-opacity="0.5"/>
<path d="M272.714 102.345C272.714 105.132 270.454 107.392 267.668 107.392C264.881 107.392 262.621 105.132 262.621 102.345C262.621 99.5584 264.881 97.2988 267.668 97.2988C270.454 97.2988 272.714 99.5584 272.714 102.345Z" fill="#D5EF85" fill-opacity="0.5"/>
<path d="M179.491 345.674L179.1 345.6L52.5458 321.704L52.7193 320.782L178.882 344.604L267.227 102.184L268.108 102.506L179.491 345.674Z" fill="#DFFF7E"/>
<path d="M58.6017 124.665L57.9799 125.367L101.163 163.602L101.785 162.9L58.6017 124.665Z" fill="#DFFF7E"/>
<path d="M411.273 345.944L348.703 307.167L350.069 306.792L415.807 243.549L368.9 136.87L369.759 136.493L416.929 243.77L416.693 243.997L350.818 307.373L411.766 345.146L411.273 345.944Z" fill="#DFFF7E"/>
<path d="M53.0261 321.498L52.2382 320.988L90.0546 262.575L46.4573 222.132L46.7753 221.789L101.382 162.668L101.706 162.856L350.544 306.807L350.074 307.618L101.561 163.855L47.7817 222.082L91.2702 262.423L53.0261 321.498Z" fill="#DFFF7E"/>
<path d="M234.5 401.052C334.943 401.052 416.368 396.297 416.368 390.431C416.368 384.565 334.943 379.81 234.5 379.81C134.057 379.81 52.6321 384.565 52.6321 390.431C52.6321 396.297 134.057 401.052 234.5 401.052Z" fill="#E9F0D4"/>
<path d="M226.058 280.585C228.581 280.793 231.081 280.877 233.556 280.84C254.758 280.53 274.157 271.434 287.915 256.807C299.32 244.684 306.853 228.756 308.331 210.877C308.369 210.414 308.402 209.951 308.434 209.492C309.05 199.927 307.873 190.652 305.188 182V181.994C296.967 155.547 274.655 134.893 246.36 129.636C243.825 129.168 241.246 128.82 238.622 128.604C232.287 128.079 226.072 128.346 220.073 129.323C202.296 132.204 186.387 141.29 174.879 154.457C164.537 166.297 157.744 181.433 156.349 198.312C155.601 207.354 156.464 216.159 158.696 224.436C166.825 254.601 193.131 277.863 226.058 280.585Z" fill="#AFD735"/>
<g opacity="0.7">
<path d="M226.058 280.585C228.581 280.793 231.081 280.877 233.556 280.84C254.758 280.53 274.157 271.434 287.915 256.807C299.32 244.684 306.853 228.756 308.331 210.877C308.369 210.414 308.402 209.951 308.434 209.492C309.05 199.927 307.873 190.652 305.188 182V181.994C296.967 155.547 274.655 134.893 246.36 129.636C243.825 129.168 241.246 128.82 238.622 128.604C232.287 128.079 226.072 128.346 220.073 129.323C202.296 132.204 186.387 141.29 174.879 154.457C164.537 166.297 157.744 181.433 156.349 198.312C155.601 207.354 156.464 216.159 158.696 224.436C166.825 254.601 193.131 277.863 226.058 280.585Z" fill="white"/>
</g>
<path d="M175.232 223.191C174.986 224.608 173.184 225.117 171.731 225.3C169.551 225.569 167.37 225.844 165.189 226.113C164.16 223.403 160.953 223.38 158.696 224.435C166.824 254.601 193.13 277.862 226.057 280.584C228.58 280.792 231.08 280.876 233.555 280.839C233.599 280.781 233.638 280.717 233.677 280.652C234.813 278.654 233.165 276.885 232.283 275.247C232.084 274.876 230.215 270.153 230.835 270.14C228.832 270.182 226.822 269.922 224.896 269.372C224.749 269.33 224.591 269.276 224.514 269.145C224.333 268.833 224.768 268.528 225.119 268.446C226.017 268.235 226.95 268.186 227.834 267.923C228.717 267.658 229.587 267.121 229.929 266.264C230.273 265.404 230.019 264.418 230.216 263.512C230.456 262.407 231.356 261.539 232.375 261.049C233.359 260.576 234.467 260.406 235.525 260.21C233.221 258.956 234.898 256.341 233.091 254.596C232.51 254.035 231.664 253.349 232.021 252.625C232.359 251.936 233.579 251.946 233.731 251.194C233.837 250.666 233.282 250.233 232.758 250.115C232.234 249.997 231.662 250.039 231.192 249.778C230.531 249.412 230.311 248.436 230.749 247.821C231.143 247.269 231.871 247.099 232.469 246.781C233.068 246.462 233.608 245.723 233.248 245.148C233.163 245.013 233.037 244.907 232.902 244.824C231.925 244.219 230.648 244.724 229.694 245.363C228.74 246.002 227.774 246.806 226.625 246.794C226.363 246.362 226.549 245.722 227.002 245.498C227.159 245.42 227.345 245.384 227.468 245.258C227.735 244.984 227.534 244.534 227.351 244.198C226.49 242.616 226.296 240.683 226.825 238.961C229.152 239.005 231.48 239.05 233.807 239.094C233.865 238.571 233.921 238.259 234.476 238.1C232.915 236.233 231.211 234.503 229.831 232.472C229.666 232.229 229.484 231.968 229.208 231.869C228.919 231.766 228.597 231.864 228.293 231.823C227.286 231.685 227.124 230.309 227.227 229.298C227.085 228.991 226.59 229.124 226.404 229.406C226.218 229.687 226.174 230.055 225.948 230.304C225.61 230.678 225.006 230.639 224.535 230.457C222.898 229.827 222.033 227.703 222.763 226.109C222.85 225.919 222.963 225.73 223.145 225.626C223.543 225.398 224.025 225.678 224.477 225.76C226.259 226.08 225.988 224.112 225.558 223.18C224.976 221.918 223.242 221.104 221.982 220.782C220.511 220.405 210.692 218.529 212.311 215.327C212.463 215.027 212.759 214.824 213.067 214.688C214.002 214.279 215.082 214.394 216.065 214.117C217.048 213.84 218.001 212.817 217.574 211.89C217.402 211.519 217.046 211.263 216.847 210.906C216.293 209.908 217.146 208.613 216.753 207.543C216.572 207.05 216.154 206.687 215.891 206.233C215.628 205.779 215.584 205.096 216.033 204.823C216.534 204.518 217.223 204.972 217.759 204.731C218.321 204.478 218.278 203.557 217.77 203.207C217.261 202.857 216.545 202.991 216.034 203.337C215.766 203.518 215.515 203.758 215.195 203.8C214.622 203.876 214.193 203.306 213.901 202.807C213.436 202.013 212.971 201.221 212.506 200.427C211.98 200.437 211.578 200.918 211.398 201.412C211.218 201.906 211.183 202.446 210.979 202.934C209.992 205.287 206.411 205.006 206.875 208.226C207.84 208.109 208.732 209.196 208.429 210.12C208.056 211.259 206.346 211.885 206.585 213.059C206.669 213.467 206.993 213.798 207.059 214.21C207.24 215.347 205.482 215.764 204.727 216.023C202.224 216.882 202.054 215.238 199.885 215.141C198.893 215.096 198.001 215.765 197.014 215.874C196.105 215.974 195.201 215.59 194.289 215.642C191.781 215.789 193.038 219.189 193.216 220.667C191.868 219.769 190.068 220.817 188.995 222.027C187.348 223.886 187.501 223.558 185.321 223.641C184.745 223.662 184.141 223.947 183.907 224.474C183.501 225.391 184.364 226.38 184.386 227.383C184.397 227.865 184.21 228.338 184.254 228.818C184.37 230.076 185.861 230.624 186.765 231.508C187.556 232.281 187.931 233.457 187.732 234.545C187.088 234.585 186.438 234.539 185.806 234.408C185.428 233.679 185.05 232.95 184.673 232.222C184.339 231.577 183.986 230.908 183.4 230.482C183.071 230.242 182.671 230.079 182.432 229.751C181.957 229.097 182.342 228.2 182.454 227.4C182.728 225.46 181.752 222.193 181.278 220.269C180.771 218.216 179.408 217.41 178.913 215.515C178.826 215.181 178.36 215.072 178.06 215.243C177.759 215.414 177.606 215.758 177.519 216.093C177.32 216.868 177.395 217.712 177.726 218.441C177.291 217.485 174.872 220.002 174.726 220.48C174.487 221.262 175.005 222.378 174.986 223.191C174.936 225.208 174.448 226.342 172.364 224.857C171.567 224.29 170.546 223.62 169.701 224.114C169.882 224.663 169.513 225.279 168.998 225.54C168.484 225.801 167.87 225.778 167.303 225.669C166.92 225.596 166.519 225.471 166.275 225.169C166.143 225.007 166.063 224.802 165.898 224.673C165.364 224.257 164.689 224.979 164.399 225.592" fill="#8AAC24"/>
<path d="M267.356 163.234C267.777 163.894 267.333 164.755 266.852 165.373C266.37 165.991 265.809 166.718 266.02 167.473C266.925 167.556 267.83 167.638 268.734 167.721C268.904 167.737 269.093 167.762 269.201 167.894C269.311 168.028 269.296 168.221 269.274 168.393C269.204 168.974 269.133 169.556 269.062 170.136C268.491 170.582 267.941 169.178 267.23 169.318C266.915 169.38 266.755 169.718 266.582 169.988C265.113 172.292 262.549 170.567 261.177 169.369C259.583 167.979 257.276 167.889 255.158 167.865C254.406 167.859 253.561 167.885 253.027 168.425C252.501 168.95 252.471 169.779 252.206 170.481C251.751 171.697 250.584 172.494 249.924 173.614C247.616 177.528 251.765 180.536 255.293 179.471C257.121 178.92 256.806 178.6 258.675 179.136C259.455 179.36 260.408 179.168 260.886 180.033C261.392 180.95 260.683 182.162 259.614 182.152C258.565 182.142 257.555 182.305 256.608 181.803C256.963 183.039 256.571 184.449 256.473 185.763C255.276 185.485 254.091 186.967 254.627 188.073C255.222 188.082 256.027 188.305 255.977 188.899C255.963 189.073 255.868 189.227 255.768 189.37C255.354 189.966 254.822 190.48 254.465 191.114C253.918 192.088 253.922 195.007 252.526 195.357C252.28 195.419 252.018 195.398 251.777 195.475C251.263 195.64 250.972 196.254 251.092 196.78C251.213 197.305 251.678 197.712 252.198 197.851C252.545 197.944 252.917 197.935 253.256 198.053C255.059 198.681 253.476 200.462 253.908 201.344C254.115 201.767 257.126 203.671 257.503 203.736C256.444 204.463 255.51 205.601 255.472 206.941C255.43 208.408 256.545 209.12 257.941 209.556C259.414 210.016 261.2 210.169 262.262 210.579C262.832 210.8 263.529 211.004 264.009 210.625C264.61 210.15 264.478 209.035 265.17 208.711C265.389 208.607 265.643 208.617 265.885 208.593C267.301 208.458 268.433 206.968 268.181 205.566C268.509 205.14 269.148 205.18 269.686 205.194C270.225 205.208 270.906 205.031 270.983 204.498C271.074 203.886 270.289 203.546 269.671 203.508C269.041 203.471 268.406 203.522 267.79 203.659C267.329 203.761 266.833 203.908 266.403 203.715C266.078 203.568 265.863 203.257 265.677 202.952C265.23 202.22 264.839 201.394 264.91 200.539C264.981 199.682 265.672 198.828 266.53 198.86C266.76 198.868 266.99 198.938 267.218 198.9C267.803 198.805 268.056 198.087 268.021 197.496C267.987 196.905 267.786 196.303 267.947 195.733C268.109 195.164 268.898 194.74 269.292 195.182C269.624 194.425 269.843 193.323 269.102 192.959C268.864 192.842 268.587 192.848 268.322 192.824C266.692 192.671 264.488 190.462 266.3 189.206C267.491 188.379 269.415 190.103 270.463 188.538C270.964 187.79 270.653 186.7 271.168 185.962C271.473 185.743 271.829 186.186 271.897 186.556C272.112 187.724 271.663 188.991 270.761 189.763C271.678 190.298 273.127 189.688 273.749 190.547C274.363 191.395 273.453 192.87 274.266 193.532C274.498 193.721 274.811 193.772 275.108 193.816C276.575 194.033 279.314 193.783 279.404 195.884C279.415 196.139 279.376 196.4 279.45 196.644C279.675 197.384 280.681 197.455 281.452 197.378C281.847 196.621 281.332 195.738 280.989 194.955C280.648 194.172 280.671 192.973 281.503 192.778C282.099 192.638 282.792 193.149 283.294 192.799C283.526 192.637 283.633 192.328 283.884 192.195C284.49 191.873 285.002 192.806 285.655 193.015C286.555 193.302 287.237 192.121 287.238 191.176C287.239 190.23 287.003 189.154 287.619 188.438C287.814 188.211 288.076 188.051 288.291 187.843C288.954 187.2 289.084 186.202 289.178 185.285C289.327 183.82 295.11 187.615 295.476 187.676C298.256 188.14 299.963 185.383 301.868 183.872C302.872 183.084 304.029 182.539 305.188 181.994C297.271 156.53 275.948 136.532 249.981 130.4C248.817 130.125 247.615 129.812 246.441 129.714C246.799 131.486 247.894 134.284 246.705 135.966C245.196 138.102 241.998 136.232 240.822 138.737C240.783 139.376 241.848 139.271 242.341 139.68C242.615 139.908 242.683 140.292 242.819 140.621C242.955 140.95 243.274 141.282 243.615 141.179C244.011 141.771 243.393 142.498 242.87 142.979C242.254 143.546 241.677 144.203 241.443 145.007C240.957 146.683 242.058 148.346 242.764 149.941C243.347 151.259 243.676 152.674 244 154.078C244.011 153.411 244.954 153.144 245.549 153.446C246.143 153.748 246.506 154.357 246.989 154.819C247.809 155.606 248.87 155.129 249.755 155.802C250.855 156.635 251.558 158.132 252.916 158.356C254.562 158.633 255.758 156.877 256.489 155.381C258.298 156.339 259.416 158.651 261.46 158.804C262.248 158.863 263.009 158.567 263.74 158.279C265.239 157.689 266.738 157.099 268.231 156.509C268.853 156.262 269.537 156.016 270.165 156.242C270.908 156.5 271.285 157.306 271.579 158.028C271.902 158.813 272.224 159.599 272.548 160.384C272.678 160.709 272.813 161.063 272.728 161.4C272.636 161.763 272.324 162.012 272.009 162.217C270.315 163.33 268.188 163.762 266.189 163.405C266.386 166.119 266.917 168.81 267.776 171.393C266.247 170.998 264.487 171.509 263.071 170.919" fill="#8AAC24"/>
<path d="M249.92 225.14C249.347 225.823 248.511 226.343 247.62 226.321C247.07 226.307 246.546 226.092 246.002 226.015C245.458 225.938 244.821 226.046 244.521 226.505C244.137 227.093 244.501 227.865 244.863 228.466C245.158 228.955 245.502 229.483 246.05 229.637C246.452 229.752 246.884 229.639 247.296 229.707C248.111 229.84 248.633 230.61 249.174 231.234C249.715 231.858 250.598 232.42 251.317 232.014C251.791 231.748 251.995 231.15 252.454 230.861C253.575 230.154 254.954 231.689 255.97 231.11C257.173 230.424 256.732 228.465 256.233 227.362C255.729 226.245 254.701 225.383 253.839 224.546C251.4 222.181 251.741 222.969 249.92 225.14Z" fill="#AFD343"/>
<path d="M287.943 256.746C299.94 244.858 306.955 227.533 308.332 210.876C308.37 210.413 308.403 209.95 308.435 209.491C306.122 207.105 301.513 205.583 300.307 209.874C299.832 209.84 299.735 209.557 299.373 209.288C298.805 208.866 298.005 209.438 297.686 210.071C296.642 212.144 296.496 214.746 293.624 214.187C290.198 213.521 292.521 212.054 291.405 210.165C291.243 209.891 290.96 209.716 290.737 209.49C289.918 208.661 290.027 207.323 290.191 206.17C290.848 206.511 291.77 206.127 291.991 205.42C292.074 205.154 292.075 204.847 292.256 204.633C292.644 204.175 293.444 204.604 293.631 205.175C293.816 205.746 293.674 206.375 293.797 206.962C293.921 207.549 294.563 208.125 295.075 207.813C295.289 207.683 295.403 207.437 295.476 207.198C295.784 206.192 295.556 205.038 294.888 204.225C295.453 204.075 295.878 203.51 295.866 202.926C295.853 202.342 295.403 201.796 294.833 201.671C293.999 201.488 292.807 201.98 292.469 201.196C292.594 201.879 292.297 202.621 291.735 203.029C289.523 204.636 284.548 203.205 285.044 207.916C285.124 208.673 285.387 209.411 285.37 210.172C285.354 210.933 284.935 211.774 284.188 211.92C285.531 213.003 285.039 215.484 286.482 216.431C287.161 216.877 288.149 216.772 288.719 216.194C288.814 216.098 288.905 215.987 289.034 215.946C289.297 215.865 289.541 216.112 289.81 216.17C290.278 216.269 290.682 215.786 291.16 215.759C291.826 215.721 292.188 216.519 292.306 217.174C292.424 217.831 292.602 218.635 293.243 218.814C293.462 218.875 293.698 218.845 293.918 218.907C294.359 219.03 294.625 219.509 294.648 219.967C294.673 220.424 294.508 220.869 294.345 221.298C294.069 221.577 293.574 221.406 293.307 221.118C293.04 220.829 292.879 220.444 292.571 220.199C292.398 220.063 288.411 220.37 288.537 220.08C287.944 221.452 287.645 224.456 285.585 223.69C284.858 223.42 284.116 222.929 283.373 223.149C283.726 222.179 284.069 221.206 284.399 220.228C284.098 219.961 283.63 220.327 283.502 220.709C283.374 221.09 283.354 221.554 283.031 221.796C282.805 221.965 282.499 221.967 282.216 221.962C281.297 221.944 280.377 221.926 279.457 221.907C278.459 221.888 277.311 221.935 276.689 222.715C275.982 223.602 276.389 224.964 277.143 225.812C277.324 226.016 277.537 226.24 277.518 226.512C277.5 226.758 277.298 226.943 277.121 227.114C276.185 228.015 275.564 229.325 275.766 230.607C275.969 231.89 277.158 233.027 278.452 232.912C278.949 232.868 279.567 232.7 279.861 233.104C280.033 233.342 280.028 233.725 280.295 233.846C280.632 233.998 280.914 233.575 281.156 233.297C281.593 232.792 282.403 232.661 282.976 233.002C283.269 233.176 284.19 236.009 283.95 236.42C283.4 237.363 280.788 236.992 279.768 237.037C279.373 237.055 278.932 237.094 278.673 237.392C278.269 237.857 278.596 238.598 279.049 239.016C279.502 239.435 280.091 239.761 280.317 240.335C280.448 240.669 280.433 241.04 280.417 241.397C280.384 242.122 280.31 242.934 279.757 243.405C279.5 243.626 279.165 243.741 278.906 243.961C278.316 244.463 278.274 245.372 278.479 246.119C278.684 246.867 279.085 247.555 279.228 248.318C279.531 249.939 278.642 251.698 279.286 253.216C279.597 253.949 280.567 254.535 281.174 254.018C281.698 253.571 281.694 252.518 282.377 252.441C283.033 252.367 283.844 254.02 284.389 254.341C284.82 254.595 285.688 254.175 286.479 254.749C287.122 255.216 287.252 256.241 287.943 256.746Z" fill="#8AAC24"/>
<path d="M186.122 155.153C186.796 154.294 187.221 153.307 188.487 153.086C190.212 152.785 190.865 153.752 190.11 155.388C190.042 155.534 189.971 155.693 190.009 155.849C190.127 156.347 190.872 156.056 191.297 155.77C192.288 155.1 193.549 155.144 194.608 155.61C194.859 155.721 195.326 150.989 195.08 150.445C194.218 148.542 190.23 149.438 191.047 147.367C192.539 147.335 194.068 147.531 195.566 147.639C195.648 146.919 195.731 146.199 195.812 145.479C195.751 146.016 198.539 145.905 198.854 145.745C200.081 145.122 199.748 142.887 201.95 143.25C204.737 143.71 204.897 149.186 201.727 148.293C200.968 149.901 200.681 151.825 200.599 153.598C200.026 153.597 199.448 153.587 198.875 153.58C198.59 153.972 198.505 154.51 198.664 154.973C200.039 155.941 202.022 155.958 203.42 155.018C204.324 155.711 205.604 155.047 206.535 154.387C207.84 156.485 211.579 156.192 212.542 153.917C213.507 151.637 211.109 148.752 208.694 149.277C208.649 148.127 208.23 146.996 207.518 146.094C210.511 146.196 213.456 144.157 214.41 141.32C214.893 139.893 215.003 138.166 216.207 137.259C216.741 136.854 217.418 136.685 217.977 136.316C219.226 135.475 219.593 133.831 219.79 132.335C219.918 131.334 220.013 130.33 220.073 129.323C202.295 132.204 186.386 141.29 174.878 154.457C174.817 154.986 174.783 155.534 174.991 156.012C175.384 156.898 176.441 157.244 177.381 157.491C181.039 158.457 183.378 158.246 185.912 155.402C185.987 155.321 186.055 155.237 186.122 155.153Z" fill="#8AAC24"/>
<path d="M47.1195 125.024C47.1195 129.161 49.3707 132.778 52.7147 134.705C54.3543 135.654 56.2584 136.197 58.2911 136.197C60.8893 136.197 63.2794 135.312 65.1741 133.821C67.7865 131.778 69.4636 128.596 69.4636 125.024C69.4636 118.854 64.4613 113.852 58.2911 113.852C52.1219 113.852 47.1195 118.854 47.1195 125.024Z" fill="#D5EF85"/>
<path opacity="0.3" d="M59.9817 135.424C65.7253 134.492 69.6258 129.08 68.6936 123.337C67.7615 117.593 62.3497 113.693 56.6061 114.625C50.8625 115.557 46.9621 120.969 47.8942 126.712C48.8264 132.456 54.2381 136.357 59.9817 135.424Z" fill="white"/>
<path d="M52.029 124.848C52.1584 126.186 53.3215 126.409 53.3215 126.409C53.3215 126.409 53.0533 127.118 53.3675 127.969C53.6827 128.827 55.4058 128.827 55.4058 128.827C55.4058 128.827 55.554 129.285 56.189 129.355C56.2256 129.406 56.2678 129.448 56.2997 129.489C56.3738 129.6 56.4573 129.716 56.5455 129.827C56.7584 131.522 56.7171 133.31 55.8879 134.218C55.8926 134.223 55.902 134.228 55.9067 134.237C55.1844 134.316 54.4565 134.414 53.739 134.529C53.3956 134.58 53.0533 134.64 52.7156 134.705C54.3552 135.654 56.2594 136.197 58.292 136.197C60.8903 136.197 63.2803 135.312 65.1751 133.821C64.8552 133.816 64.4941 133.811 64.1001 133.811C63.5167 133.807 62.8591 133.816 62.1406 133.83C62.1359 133.816 62.1312 133.802 62.1219 133.788C60.9175 133.589 60.334 133.023 60.093 132.306C59.9729 131.949 59.9448 131.555 59.9588 131.147C60.2787 131.087 60.5892 130.985 60.8856 130.842C61.7242 130.434 62.423 129.707 62.785 128.762C62.8357 128.637 62.8779 128.507 62.9145 128.373C63.1649 127.424 63.2709 126.224 63.1555 125.047C63.466 124.861 63.8037 124.537 63.9153 123.972C64.1376 122.837 63.1227 122.568 63.1227 122.568C63.1227 122.568 64.2295 122.387 64.2718 121.003C64.3177 119.618 63.1227 119.618 63.1227 119.618C63.1227 119.618 63.5307 119.029 62.7381 117.936C61.9502 116.848 60.8527 117.515 60.8527 117.515C60.8527 117.515 60.0189 116.204 58.6616 116.523C57.2996 116.848 56.9525 117.649 56.9525 117.649C56.9525 117.649 56.9525 116.848 55.4058 117.292C53.859 117.742 54.0485 119.52 54.0485 119.52C54.0485 119.52 53.0111 118.992 52.4736 120.108C51.9361 121.224 53.0992 123.179 53.0992 123.179C53.0992 123.179 51.8948 123.505 52.029 124.848Z" fill="#D5EF85"/>
<path d="M52.6321 331.173C58.1167 331.173 62.5627 326.727 62.5627 321.242C62.5627 315.758 58.1167 311.312 52.6321 311.312C47.1476 311.312 42.7015 315.758 42.7015 321.242C42.7015 326.727 47.1476 331.173 52.6321 331.173Z" fill="#D5EF85"/>
<path opacity="0.3" d="M61.9981 321.244C61.9981 323.405 61.2655 325.399 60.0339 326.984C58.3173 329.186 55.6403 330.607 52.6312 330.607C50.6755 330.607 48.8595 330.006 47.3568 328.981C44.8908 327.297 43.2681 324.461 43.2681 321.244C43.2681 316.073 47.4591 311.877 52.6312 311.877C57.8033 311.877 61.9981 316.072 61.9981 321.244Z" fill="white"/>
<path d="M60.0349 326.983C58.3183 329.185 55.6413 330.607 52.6322 330.607C50.6765 330.607 48.8605 330.005 47.3578 328.98C47.6711 328.268 47.8681 327.844 47.8681 327.844C49.0378 327.469 50.2272 327.181 51.4334 326.967C51.7383 326.695 52.1416 326.481 52.6603 326.357C52.9117 325.604 52.7635 324.781 52.59 324.224C52.2157 323.973 51.8987 323.652 51.6351 323.282C51.4494 323.146 51.2815 322.977 51.1286 322.784C50.8406 322.664 48.8474 321.738 48.7442 318.473C48.7404 318.337 48.7442 318.205 48.7526 318.073C48.1354 318.011 47.4929 318.204 47.9375 319.46C48.7076 321.626 47.9 322.762 47.9 322.762C47.9375 322.066 47.8296 321.33 47.8296 321.33C47.8296 323.57 46.6196 323.713 46.6196 323.713C46.6196 323.713 47.3897 322.906 46.2529 320.415C45.1169 317.92 45.4462 314.548 47.6073 314.404C48.7686 314.326 49.534 314.877 49.9992 315.408C51.2224 314.321 53.0712 314.128 54.2437 314.914C54.2437 314.914 56.1872 314.44 56.735 314.95C56.8541 315.061 56.7641 315.317 56.5296 315.655C57.0239 315.984 57.4394 316.487 57.6167 317.261C57.9216 318.598 57.5304 319.624 57.0858 320.304C57.3456 322.766 56.9254 324.61 54.9697 324.783C54.9659 324.845 54.9612 324.907 54.9575 324.964C54.9537 325.051 54.9491 325.137 54.9491 325.216C54.9406 325.69 54.9988 326.027 55.0851 326.265C55.373 326.319 55.6488 326.398 55.9039 326.488C57.658 326.484 59.6175 326.673 59.6175 326.673C59.6175 326.673 59.6259 326.677 59.6381 326.686C59.7507 326.749 59.882 326.852 60.0349 326.983Z" fill="#D5EF85"/>
<path d="M424.115 251.412C428.395 247.131 428.395 240.191 424.115 235.91C419.834 231.629 412.894 231.629 408.613 235.91C404.332 240.191 404.332 247.131 408.613 251.412C412.894 255.692 419.834 255.692 424.115 251.412Z" fill="#D5EF85"/>
<path opacity="0.3" d="M426.703 243.659C426.703 245.777 426.067 247.744 424.971 249.384C423.122 252.165 419.959 253.997 416.369 253.997C413.983 253.997 411.788 253.189 410.038 251.825C407.602 249.939 406.035 246.98 406.035 243.659C406.035 237.951 410.661 233.325 416.369 233.325C422.076 233.325 426.703 237.951 426.703 243.659Z" fill="white"/>
<path d="M424.971 249.385C423.121 252.166 419.959 253.998 416.369 253.998C413.983 253.998 411.788 253.19 410.038 251.826C409.925 251.195 410.052 250.585 410.097 250.131C410.224 248.867 411.684 247.85 411.656 246.963C411.629 246.077 410.161 244.936 411.111 244.428C412.062 243.919 412.266 241.951 411.502 240.846C410.871 240.12 410.407 238.97 411.562 237.488C412.279 236.57 413.325 236.134 414.379 235.957C415.106 235.566 416.098 235.37 417.438 235.516C418.724 235.652 419.719 236.025 420.478 236.548C421.232 237.075 421.746 237.747 422.06 238.497C422.06 238.497 423.196 240.674 422.387 242.973C421.869 244.45 424.168 244.364 424.232 245.722C424.296 247.077 423.155 247.154 423.355 248.063C423.444 248.481 424.235 248.872 424.971 249.385Z" fill="#D5EF85"/>
<path d="M368.926 134.285L285.253 170.563L285.626 171.423L369.298 135.145L368.926 134.285Z" fill="#407BFF"/>
<path d="M170.22 86.3095L169.422 86.8032L205.193 144.595L205.991 144.101L170.22 86.3095Z" fill="#407BFF"/>
<path d="M181.408 240.166L88.5958 259.614L88.7882 260.532L181.6 241.084L181.408 240.166Z" fill="#407BFF"/>
<path opacity="0.8" d="M368.926 134.285L285.253 170.563L285.626 171.423L369.298 135.145L368.926 134.285Z" fill="#DFFF7E"/>
<path d="M296.54 225.312L295.745 225.81L349.142 311.041L349.937 310.543L296.54 225.312Z" fill="#407BFF"/>
<path opacity="0.8" d="M296.54 225.312L295.745 225.81L349.142 311.041L349.937 310.543L296.54 225.312Z" fill="#DFFF7E"/>
<path opacity="0.8" d="M170.22 86.3095L169.422 86.8032L205.193 144.595L205.991 144.101L170.22 86.3095Z" fill="#DFFF7E"/>
<path opacity="0.8" d="M181.408 240.166L88.5958 259.614L88.7882 260.532L181.6 241.084L181.408 240.166Z" fill="#DFFF7E"/>
<path d="M179.042 345.646L88.1748 260.224L101.024 163.058L101.12 162.95L169.584 86.1093L169.755 86.0859L293.829 68.9271L369.593 134.534L369.565 134.778L349.983 311.181L349.647 311.249L179.042 345.646ZM89.1691 259.87L179.332 344.631L349.127 310.397L368.609 134.92L293.539 69.9148L170.056 86.9911L101.917 163.466L89.1691 259.87Z" fill="#407BFF"/>
<path opacity="0.8" d="M179.042 345.646L88.1748 260.224L101.024 163.058L101.12 162.95L169.584 86.1093L169.755 86.0859L293.829 68.9271L369.593 134.534L369.565 134.778L349.983 311.181L349.647 311.249L179.042 345.646ZM89.1691 259.87L179.332 344.631L349.127 310.397L368.609 134.92L293.539 69.9148L170.056 86.9911L101.917 163.466L89.1691 259.87Z" fill="#DFFF7E"/>
<path d="M207 144.34L205.593 152.554L204.186 144.34H207Z" fill="#698416"/>
<path d="M209.665 144.34C209.665 146.59 207.842 148.413 205.593 148.413C203.343 148.413 201.52 146.59 201.52 144.34C201.52 142.091 203.343 140.268 205.593 140.268C207.842 140.268 209.665 142.091 209.665 144.34Z" fill="#698416"/>
<path opacity="0.3" d="M205.99 141.469C206.443 142.064 206.086 143.099 205.191 143.78C204.296 144.461 203.204 144.532 202.751 143.936C202.298 143.341 202.655 142.306 203.55 141.625C204.445 140.944 205.537 140.874 205.99 141.469Z" fill="white"/>
<path d="M286.838 171.007L285.431 179.221L284.024 171.007H286.838Z" fill="#698416"/>
<path d="M285.431 175.08C287.681 175.08 289.504 173.256 289.504 171.007C289.504 168.757 287.681 166.934 285.431 166.934C283.182 166.934 281.359 168.757 281.359 171.007C281.359 173.256 283.182 175.08 285.431 175.08Z" fill="#698416"/>
<path opacity="0.3" d="M285.83 168.136C286.283 168.731 285.926 169.766 285.031 170.447C284.136 171.129 283.043 171.198 282.59 170.603C282.137 170.008 282.495 168.973 283.389 168.292C284.284 167.61 285.377 167.54 285.83 168.136Z" fill="white"/>
<path d="M182.894 240.149L181.487 248.363L180.08 240.149H182.894Z" fill="#698416"/>
<path d="M181.487 244.221C183.736 244.221 185.56 242.398 185.56 240.149C185.56 237.899 183.736 236.076 181.487 236.076C179.238 236.076 177.414 237.899 177.414 240.149C177.414 242.398 179.238 244.221 181.487 244.221Z" fill="#698416"/>
<path opacity="0.3" d="M181.886 237.276C182.339 237.871 181.981 238.907 181.087 239.588C180.192 240.269 179.099 240.339 178.646 239.743C178.193 239.148 178.55 238.113 179.445 237.432C180.339 236.751 181.432 236.682 181.886 237.276Z" fill="#AFD735"/>
<path d="M297.561 225.557L296.154 233.771L294.747 225.557H297.561Z" fill="#698416"/>
<path d="M300.228 225.557C300.228 227.806 298.404 229.63 296.155 229.63C293.906 229.63 292.082 227.806 292.082 225.557C292.082 223.308 293.906 221.484 296.155 221.484C298.404 221.484 300.228 223.308 300.228 225.557Z" fill="#698416"/>
<path opacity="0.3" d="M296.553 222.685C297.006 223.28 296.648 224.315 295.753 224.996C294.859 225.677 293.766 225.748 293.313 225.152C292.86 224.557 293.217 223.522 294.112 222.841C295.007 222.16 296.099 222.09 296.553 222.685Z" fill="white"/>
<path d="M400.601 136.683C400.601 143.71 398.279 150.206 394.364 155.429C392.973 157.292 391.37 158.99 389.601 160.476C388.021 161.843 386.288 163.046 384.437 164.06C379.968 166.536 374.816 167.951 369.333 167.951C364.723 167.951 360.338 166.949 356.399 165.144C356.033 164.991 355.667 164.814 355.315 164.626L355.302 164.613C353.097 163.529 351.034 162.161 349.172 160.581C346.377 158.235 343.996 155.393 342.18 152.198C339.551 147.623 338.053 142.329 338.053 136.682C338.053 119.409 352.061 105.402 369.333 105.402C386.606 105.403 400.601 119.41 400.601 136.683Z" fill="#D5EF85"/>
<path opacity="0.7" d="M390.797 158.153C402.655 146.296 402.655 127.07 390.797 115.213C378.94 103.355 359.714 103.355 347.856 115.213C335.999 127.07 335.999 146.296 347.856 158.153C359.714 170.011 378.94 170.011 390.797 158.153Z" fill="white"/>
<path d="M349.173 150.872L352.104 138.702C352.104 138.702 353.962 137.22 354.079 136.144C354.196 135.067 352.936 128.692 352.129 128.307C351.322 127.923 346.558 129.584 346.325 130.945C346.092 132.306 347.973 137.66 348.349 138.096L343.537 152.252L349.173 150.872Z" fill="#E4897B"/>
<path d="M351.522 143.894L349.76 159.885C347.047 157.607 344.735 154.849 342.971 151.746C344.059 147.911 345.158 144.466 345.673 142.92C345.844 142.371 345.948 142.062 345.948 142.062L346.955 142.188L351.133 142.714L351.648 142.782L351.522 143.894Z" fill="#80A11D"/>
<path d="M359.5 154.196L356.776 164.315C356.421 164.166 356.066 163.994 355.722 163.811L355.711 163.8C353.571 162.747 351.567 161.419 349.759 159.885C349.976 159.392 355.551 146.813 357.634 146.961L359.5 154.196Z" fill="#80A11D"/>
<path opacity="0.3" d="M351.522 143.894L349.76 159.885C347.047 157.607 344.735 154.849 342.971 151.746C344.059 147.911 345.158 144.466 345.673 142.92C345.844 142.371 345.948 142.062 345.948 142.062L346.955 142.188L351.133 142.714L351.648 142.782L351.522 143.894Z" fill="black" fill-opacity="0.5"/>
<path opacity="0.3" d="M359.5 154.196L356.776 164.315C356.421 164.166 356.066 163.994 355.722 163.811L355.711 163.8C353.571 162.747 351.567 161.419 349.759 159.885C349.976 159.392 355.551 146.813 357.634 146.961L359.5 154.196Z" fill="black" fill-opacity="0.5"/>
<path d="M352.83 141.791L351.869 143.946L345.212 142.839L345.363 141.613L352.83 141.791Z" fill="#303D09"/>
<path d="M387.805 126.238C387.028 129.214 391.275 137.422 389.553 152.355C387.832 167.287 371.456 166.376 364.096 161.398C356.737 156.42 358.009 129.406 360.541 124.08C363.072 118.753 387.805 126.238 387.805 126.238Z" fill="#263238"/>
<path d="M392.136 150.384C391.976 150.819 391.838 151.242 391.69 151.677C391.529 152.1 391.393 152.524 391.255 152.936C390.98 153.761 390.716 154.562 390.454 155.34C389.927 156.897 389.457 158.385 389.012 159.782C387.478 161.11 385.795 162.277 383.998 163.262C379.66 165.666 374.658 167.039 369.335 167.039C364.859 167.039 360.601 166.066 356.778 164.314C356.423 164.165 356.067 163.993 355.724 163.81C355.735 163.513 355.735 163.204 355.735 162.917C355.735 162.62 355.735 162.334 355.747 162.048C355.758 161.19 355.793 160.388 355.815 159.633C355.838 159.129 355.861 158.636 355.872 158.179C355.884 157.939 355.895 157.721 355.907 157.492C355.953 156.656 355.988 155.901 356.045 155.191C356.056 154.962 356.08 154.733 356.091 154.516C356.137 153.852 356.194 153.257 356.24 152.707C356.583 149.239 357.041 147.865 357.339 147.316C357.397 147.201 357.454 147.133 357.5 147.076C357.592 146.972 357.638 146.961 357.638 146.961C357.638 146.961 358.095 146.915 358.863 146.858C360.889 146.686 365.09 146.389 368.89 146.411C368.958 146.411 369.039 146.411 369.108 146.423C369.611 146.434 370.115 146.457 370.619 146.491C372.576 146.594 374.533 146.766 376.468 147.006C377.189 147.098 377.911 147.2 378.632 147.304C379.41 147.418 380.189 147.544 380.967 147.682C381.07 147.704 381.184 147.716 381.287 147.739C384.161 148.231 386.999 148.872 389.804 149.685C390.582 149.903 391.36 150.132 392.127 150.383H392.136V150.384Z" fill="#80A11D"/>
<path opacity="0.3" d="M392.123 150.384C392.123 150.395 392.123 150.395 392.112 150.406C391.963 150.829 391.815 151.253 391.688 151.677C391.528 152.1 391.391 152.524 391.253 152.936C390.978 153.761 390.715 154.562 390.452 155.34C389.926 156.897 389.456 158.385 389.01 159.782C387.477 161.11 385.794 162.277 383.997 163.262C379.658 165.666 374.656 167.039 369.333 167.039C364.858 167.039 360.599 166.066 356.776 164.314C356.421 164.165 356.066 163.993 355.722 163.81L355.711 163.799C355.711 163.502 355.722 163.204 355.734 162.917C355.734 162.62 355.734 162.334 355.745 162.048C355.756 161.19 355.791 160.388 355.813 159.633C355.836 159.129 355.859 158.636 355.871 158.179C355.882 157.939 355.893 157.721 355.905 157.492C355.94 156.656 355.986 155.901 356.043 155.191C356.054 154.962 356.078 154.733 356.089 154.516C356.135 153.852 356.192 153.257 356.238 152.707C356.582 149.239 357.039 147.865 357.338 147.316C357.395 147.201 357.452 147.133 357.498 147.076C357.59 146.972 357.636 146.961 357.636 146.961C357.636 146.961 358.094 146.915 358.861 146.858C360.887 146.686 365.088 146.389 368.888 146.411C368.957 146.411 369.037 146.411 369.106 146.423C369.61 146.434 370.113 146.457 370.617 146.491C372.575 146.594 374.531 146.766 376.466 147.006C377.188 147.098 377.909 147.2 378.63 147.304C379.409 147.418 380.187 147.544 380.965 147.682C381.068 147.704 381.183 147.716 381.286 147.739C384.159 148.231 386.997 148.872 389.802 149.685C390.579 149.904 391.356 150.133 392.123 150.384Z" fill="black" fill-opacity="0.5"/>
<path d="M374.564 145.605C381.262 146.13 382.084 148.155 381.369 149.215C380.655 150.275 371.579 159.146 368.847 165.088C368.847 165.088 359.011 144.384 374.564 145.605Z" fill="white"/>
<path d="M371.105 152.355C377.736 151.506 379.728 148.674 379.728 148.674C375.521 144.704 379.016 137.826 379.016 137.826L371.034 139.316C371.245 140.635 371.334 141.742 371.346 142.676C371.407 147.52 369.216 147.568 369.216 147.568C367.816 150.192 371.105 152.355 371.105 152.355Z" fill="#E4897B"/>
<path opacity="0.2" d="M371.035 139.316C371.246 140.635 371.335 141.742 371.347 142.676C376.738 142.676 379.016 137.826 379.016 137.826L371.035 139.316Z" fill="black"/>
<path d="M375.447 117C368.509 116.62 366.072 120.211 365.173 127.333C364.048 136.233 365.682 142.689 374.461 141.256C386.384 139.31 386.969 117.631 375.447 117Z" fill="#E4897B"/>
<path d="M369.679 127.191C369.679 127.191 368.618 128.951 367.503 129.958C367.503 129.958 368.045 130.934 369.289 130.843L369.679 127.191Z" fill="#DE5753"/>
<path d="M373.956 126.857C373.912 127.426 374.183 127.911 374.563 127.941C374.942 127.971 375.286 127.534 375.331 126.965C375.376 126.395 375.104 125.911 374.725 125.88C374.345 125.85 374.001 126.288 373.956 126.857Z" fill="#263238"/>
<path d="M374.88 125.92L373.681 125.337C373.681 125.337 374.215 126.427 374.88 125.92Z" fill="#263238"/>
<path d="M366.89 126.184C366.846 126.754 367.117 127.239 367.496 127.269C367.876 127.298 368.22 126.861 368.264 126.292C368.309 125.723 368.037 125.238 367.658 125.208C367.279 125.178 366.935 125.615 366.89 126.184Z" fill="#263238"/>
<path d="M367.814 125.247L366.615 124.665C366.615 124.665 367.148 125.755 367.814 125.247Z" fill="#263238"/>
<path d="M377.24 123.605C377.14 123.605 377.042 123.559 376.979 123.472C376.112 122.277 374.33 122.385 374.312 122.39C374.127 122.403 373.982 122.27 373.968 122.093C373.954 121.916 374.088 121.762 374.264 121.749C374.351 121.743 376.419 121.606 377.5 123.095C377.604 123.238 377.572 123.44 377.429 123.545C377.372 123.585 377.306 123.605 377.24 123.605Z" fill="#263238"/>
<path d="M366.466 122.241C366.356 122.241 366.249 122.184 366.189 122.083C366.099 121.93 366.149 121.732 366.303 121.642C368.02 120.631 369.335 121.182 369.391 121.206C369.554 121.277 369.628 121.466 369.558 121.63C369.488 121.792 369.3 121.866 369.137 121.797C369.091 121.779 368.048 121.36 366.63 122.197C366.578 122.226 366.522 122.241 366.466 122.241Z" fill="#263238"/>
<path d="M370.151 133.628C370.506 134.487 370.828 136.082 370.828 136.082C370.978 136.079 371.128 136.076 371.277 136.065C373.308 135.972 374.219 135.258 374.613 134.494C374.827 134.076 374.882 133.638 374.879 133.282C374.881 132.871 374.788 132.578 374.788 132.578C373.742 133.27 371.855 133.504 370.842 133.585C370.419 133.625 370.151 133.628 370.151 133.628Z" fill="#263238"/>
<path d="M370.842 133.585L371.061 134.304C372.973 134.211 374.307 133.889 374.879 133.281C374.881 132.871 374.788 132.577 374.788 132.577C373.742 133.27 371.855 133.503 370.842 133.585Z" fill="white"/>
<path d="M371.277 136.064C373.308 135.971 374.219 135.257 374.613 134.493C373.923 134.551 373.096 134.699 372.379 135.044C371.829 135.306 371.494 135.685 371.277 136.064Z" fill="#DE5753"/>
<path d="M382.389 129.108C382.389 129.108 379.458 123.231 380.189 118.857C380.189 118.857 366.749 112.487 365.305 126.405C365.305 126.405 364.641 113.94 376.582 114.317C388.505 114.693 387.517 132.14 381.073 137.001C381.073 137.001 384.2 132.783 382.389 129.108Z" fill="#263238"/>
<path d="M381.175 130.51C381.283 129.396 382.539 127.569 384.604 127.909C386.74 128.262 387.524 132.732 382.118 133.5C381.343 133.61 380.951 132.836 381.175 130.51Z" fill="#E4897B"/>
<path d="M378.341 118.164C378.341 118.164 377.24 126.723 382.387 134.493C386.29 140.387 381.806 145.552 381.806 145.552C381.806 145.552 388.733 141.141 388.977 134.493C388.977 134.493 394.7 118.595 382.819 114.308C382.819 114.308 382.771 110.728 375.026 111.409C367.281 112.09 361.04 118.728 359.856 127.191C358.673 135.654 363.084 145.09 363.084 145.09C363.084 145.09 358.394 115.103 378.341 118.164Z" fill="#263238"/>
<path d="M378.788 118.305C378.241 120.23 378.13 122.383 378.212 124.456C378.325 126.546 378.665 128.629 379.209 130.662C379.744 132.698 380.523 134.671 381.53 136.524C382.56 138.356 383.806 140.114 385.454 141.456C383.756 140.175 382.435 138.453 381.326 136.641C380.241 134.807 379.377 132.838 378.758 130.793C378.131 128.752 377.705 126.643 377.509 124.503C377.355 122.353 377.36 120.208 377.893 118.022L378.788 118.305Z" fill="#263238"/>
<path d="M393.635 154.883C392.284 156.691 390.728 158.339 389.01 159.782C387.477 161.11 385.794 162.277 383.997 163.262C384.1 162.861 384.237 162.461 384.375 162.06C385.565 158.695 387.671 155.627 389.377 153.487C390.785 151.724 391.929 150.579 392.113 150.407C392.124 150.396 392.137 150.385 392.137 150.385C392.856 150.98 393.326 152.616 393.635 154.883Z" fill="#80A11D"/>
<path opacity="0.3" d="M393.635 154.883C392.284 156.691 390.728 158.339 389.01 159.782C387.477 161.11 385.794 162.277 383.997 163.262C384.1 162.861 384.237 162.461 384.375 162.06C385.565 158.695 387.671 155.627 389.377 153.487C390.785 151.724 391.929 150.579 392.113 150.407C392.124 150.396 392.137 150.385 392.137 150.385C392.856 150.98 393.326 152.616 393.635 154.883Z" fill="black" fill-opacity="0.5"/>
<path d="M295.068 87.1357C304.494 87.1357 312.136 79.4942 312.136 70.0678C312.136 60.6415 304.494 53 295.068 53C285.642 53 278 60.6415 278 70.0678C278 79.4942 285.642 87.1357 295.068 87.1357Z" fill="#D5EF85"/>
<path opacity="0.3" d="M311.159 70.0679C311.159 74.2993 309.524 78.1422 306.857 81.0153C303.92 84.1783 299.724 86.1593 295.068 86.1593C290.072 86.1593 285.614 83.8875 282.664 80.3212C280.35 77.54 278.97 73.9672 278.97 70.0679C278.97 61.1729 286.174 53.97 295.069 53.97C303.955 53.97 311.159 61.1729 311.159 70.0679Z" fill="white"/>
<path d="M306.86 81.0181C303.923 84.181 299.728 86.1621 295.072 86.1621C290.076 86.1621 285.617 83.8902 282.667 80.324C282.752 80.2883 282.837 80.2602 282.922 80.2386C283.127 79.9488 283.375 79.673 283.693 79.4319C283.693 79.3897 283.693 79.3475 283.699 79.2978L283.983 79.2481C284.45 78.9723 285.023 78.7885 285.744 78.7885C285.914 78.7885 286.084 78.795 286.268 78.8166L287.272 78.6327C287.272 78.6327 287.266 78.7322 287.251 78.9085C288.525 79.0079 290.464 79.128 292.672 79.2762C293.175 78.8945 293.485 78.4133 293.67 77.8683C293.862 77.2952 293.896 76.6648 293.862 76.0138C293.083 75.9782 292.312 75.7728 291.611 75.4192C290.373 74.7823 289.347 73.6782 288.83 72.2562C288.759 72.0649 288.703 71.8745 288.653 71.6756C288.235 69.9422 288.136 67.6778 288.568 65.5974C288.568 65.5908 288.568 65.5908 288.568 65.5833C288.51 65.5833 288.454 65.5908 288.398 65.5833C288.313 65.5692 288.256 65.4989 288.256 65.406C288.256 65.3919 288.264 65.3779 288.264 65.3638C288.285 65.2578 288.377 65.194 288.476 65.2081C288.49 65.2081 288.504 65.2015 288.525 65.2015C288.398 63.8433 288.597 62.4776 288.795 61.564C288.235 60.58 288.235 58.6627 288.766 57.8917C289.368 57.0287 288.9 57.4949 290.479 57.3608C292.057 57.2266 291.102 55.8253 292.107 55.8112C293.111 55.7971 292.906 56.4265 294.137 56.8937C295.369 57.3608 294.916 55.9594 296.316 55.8253C297.718 55.6911 297.916 56.7595 298.92 57.0278C299.925 57.2895 300.124 57.0278 300.859 57.0278C301.594 57.0278 301.658 59.1646 301.97 59.5613C302.281 59.9647 302.798 59.3634 303.463 60.4599C303.548 60.6016 303.583 60.7779 303.583 60.9833C303.583 62.3988 301.814 65.0946 301.814 65.0946C301.736 65.7174 301.616 66.3825 301.453 67.0897C301.984 67.5991 302.132 68.4414 301.772 69.2124C301.425 69.9131 300.88 70.4862 300.215 70.8755C299.868 71.6118 299.521 72.199 299.203 72.6446C298.757 75.1002 298.544 78.0015 299.38 79.8343C302.225 80.1335 304.942 80.5078 306.86 81.0181Z" fill="#D5EF85"/>
<path opacity="0.5" d="M295.068 87.1357C304.494 87.1357 312.136 79.4942 312.136 70.0678C312.136 60.6415 304.494 53 295.068 53C285.642 53 278 60.6415 278 70.0678C278 79.4942 285.642 87.1357 295.068 87.1357Z" fill="white"/>
<path d="M191.252 355.717C197.918 349.051 197.918 338.245 191.252 331.579C184.587 324.914 173.78 324.914 167.115 331.579C160.45 338.245 160.45 349.051 167.115 355.717C173.78 362.382 184.587 362.382 191.252 355.717Z" fill="#D5EF85"/>
<path opacity="0.2" d="M195.285 343.649C195.285 348.255 193.346 352.408 190.247 355.331C187.367 358.07 183.468 359.74 179.187 359.74C175.805 359.74 172.67 358.7 170.08 356.917C165.863 354.015 163.096 349.154 163.096 343.649C163.096 334.761 170.3 327.557 179.187 327.557C188.074 327.557 195.285 334.761 195.285 343.649Z" fill="white"/>
<path d="M190.246 355.331C187.366 358.07 183.467 359.74 179.186 359.74C175.804 359.74 172.669 358.7 170.079 356.917C171.247 356.754 172.478 356.605 173.731 356.478C174.701 354.369 174.453 351.015 173.936 348.177C173.575 347.66 173.172 346.981 172.776 346.132C171.997 345.687 171.374 345.022 170.979 344.215C170.561 343.323 170.724 342.354 171.34 341.759C171.007 340.308 170.83 338.992 170.816 337.888L170.745 337.924C170.745 337.924 169.45 332.928 174.29 331.095C179.13 329.262 184.02 332.539 184.02 332.539C184.02 332.539 185.067 330.586 186.32 331.095C187.381 331.527 186.815 332.914 186.617 333.338C186.751 333.126 187.084 332.673 187.714 332.383C188.57 331.994 189.752 333.084 187.098 335.737C186.829 336.007 186.503 336.233 186.15 336.417C186.306 337.471 186.397 338.773 186.221 340.04C186.716 342.439 186.61 345.057 186.122 347.053C186.064 347.286 186.002 347.513 185.916 347.725C185.323 349.374 184.141 350.648 182.704 351.377C181.897 351.794 181.005 352.028 180.106 352.07C180.064 352.82 180.114 353.549 180.326 354.207C180.538 354.837 180.906 355.395 181.48 355.834C184.034 355.657 186.27 355.53 187.742 355.409C187.728 355.197 187.714 355.09 187.714 355.09L188.874 355.302C189.383 355.247 189.843 355.261 190.246 355.331Z" fill="#D5EF85"/>
<path opacity="0.5" d="M191.252 355.717C197.918 349.051 197.918 338.245 191.252 331.579C184.587 324.914 173.78 324.914 167.115 331.579C160.45 338.245 160.45 349.051 167.115 355.717C173.78 362.382 184.587 362.382 191.252 355.717Z" fill="white"/>
<path d="M118.078 167.196C120.245 158.023 114.564 148.83 105.39 146.664C96.2165 144.498 87.0238 150.178 84.8576 159.352C82.6914 168.526 88.3722 177.718 97.5458 179.885C106.72 182.051 115.912 176.37 118.078 167.196Z" fill="#D5EF85"/>
<path opacity="0.2" d="M117.569 163.261C117.569 167.38 116.019 171.136 113.479 173.981C110.528 177.279 106.241 179.359 101.471 179.359C97.9254 179.359 94.6499 178.213 91.9963 176.274C87.9845 173.344 85.3796 168.603 85.3796 163.261C85.3796 154.373 92.5835 147.169 101.471 147.169C110.359 147.169 117.569 154.373 117.569 163.261Z" fill="white"/>
<path d="M113.478 173.981C110.527 177.279 106.24 179.359 101.47 179.359C97.9244 179.359 94.6489 178.213 91.9953 176.274L98.3784 174.307C98.4985 174.441 98.612 174.59 98.732 174.746C99.0012 174.696 99.277 174.64 99.5528 174.59C100.062 174.498 100.571 174.428 101.088 174.349C101.463 173.726 101.655 173.047 101.725 172.374C101.188 172.403 100.847 172.41 100.847 172.41C101.024 171.773 100.076 170.45 100.076 170.45L99.7582 172.197C99.7582 172.197 99.1147 172.091 98.6823 171.822C98.2574 171.553 97.6983 169.65 97.6983 169.65C97.6983 169.65 96.5943 171.504 96.3532 171.928C96.1056 172.359 95.4687 171.928 95.4687 171.928C95.4687 171.928 95.0447 170.322 95.5747 168.666C96.1122 167.002 94.4491 167.052 94.4491 167.052C94.4491 167.052 94.4491 167.753 94.0242 168.878C93.5927 170.002 93.5927 170.59 93.5927 171.262C93.5927 171.934 93.6499 172.408 93.1687 172.408C92.68 172.408 92.6313 171.983 92.68 171.262C92.7363 170.54 91.9869 169.84 92.4183 169.252C92.8433 168.665 92.5243 167.051 92.5243 167.051C92.2551 168.177 91.0245 168.127 90.8115 168.926C90.5921 169.733 91.3987 170.859 91.0235 171.262C90.6483 171.665 90.0049 171.262 90.0049 171.262C90.0049 171.262 90.5423 170.377 90.1671 169.861C89.7919 169.351 89.1972 169.09 89.4665 168.042C89.7357 166.987 90.2169 167.002 90.0611 165.841C89.8979 164.681 89.3605 164.751 90.0611 164.32C90.7543 163.895 91.6679 161.858 91.6679 160.973C91.6679 160.088 91.2927 158.058 92.7926 157.343C94.2925 156.628 94.6677 156.077 94.3994 154.187C94.1302 152.29 95.5747 152.432 97.4001 152.807C97.4001 152.807 98.3062 151.363 99.1626 151.632C100.019 151.894 100.662 151.738 100.846 151.257C101.024 150.769 103.394 150.826 103.748 151.257C104.101 151.682 105.375 152.008 106.147 151.682C106.918 151.363 108.97 152.645 108.907 153.501C108.843 154.364 108.857 154.845 109.961 155.334C111.057 155.822 111.27 156.077 111.751 157.995C112.233 159.912 111.433 160.684 112.396 161.427C113.358 162.163 113.252 165.127 113.309 166.041C113.358 166.947 113.309 167.966 113.309 167.966C113.309 167.966 113.309 167.966 113.039 168.044C112.77 168.115 112.558 167.053 112.608 166.268C112.665 165.518 110.98 164.421 110.839 164.329C110.874 164.407 111.178 165.058 111.376 165.575C111.588 166.12 111.645 167.542 111.588 168.448C111.539 169.361 112.607 169.863 112.607 169.863L111.433 170.451C111.433 170.451 110.52 168.504 110.831 167.493C111.143 166.481 110.251 165.576 110.251 165.576V167.493C110.251 167.493 109.933 168.18 109.451 169.092C108.97 170.005 109.827 170.274 109.961 170.755C110.088 171.237 108.907 171.265 108.907 171.265L108.687 170.111L108.284 171.265C107.859 171.576 106.974 171.802 105.963 171.972C106.019 172.857 106.203 173.43 106.43 173.805C106.812 173.783 107.195 173.763 107.576 173.749C108.333 173.741 109.119 173.756 109.876 173.784H109.89C111.25 173.825 112.53 173.911 113.478 173.981Z" fill="#D5EF85"/>
<path opacity="0.5" d="M118.078 167.196C120.245 158.023 114.564 148.83 105.39 146.664C96.2165 144.498 87.0238 150.178 84.8576 159.352C82.6914 168.526 88.3722 177.718 97.5458 179.885C106.72 182.051 115.912 176.37 118.078 167.196Z" fill="white"/>
<path opacity="0.7" d="M196.346 85.1469C196.346 91.4878 194.198 97.3409 190.587 102.022C189.602 103.307 188.504 104.507 187.294 105.605C186.187 106.618 185.006 107.537 183.739 108.344C183.692 108.391 183.636 108.428 183.58 108.447C182.595 109.094 181.572 109.666 180.503 110.173C176.911 111.88 172.887 112.837 168.656 112.837C160.224 112.837 152.654 109.047 147.579 103.091L147.57 103.081C143.443 98.2414 140.957 91.9849 140.957 85.1469C140.957 69.8763 153.386 57.4572 168.656 57.4572C183.917 57.4572 196.346 69.8763 196.346 85.1469Z" fill="#D5EF85"/>
<path d="M175.094 85.146C175.705 83.7906 176.138 84.3787 177.9 85.7388C179.663 87.0998 179.941 88.3267 179.941 89.7694C179.941 91.212 179.663 94.0879 179.663 94.0879L184.239 99.2216L182.167 102.345L176.849 96.3457C176.849 96.3457 174.22 94.3665 173.787 92.1397C173.355 89.9138 175.094 85.146 175.094 85.146Z" fill="#EBB376"/>
<path d="M174.489 83.6058L178.237 90.3359C178.406 90.6398 178.367 91.0169 178.139 91.2796L175.232 94.6366C174.865 95.0606 174.191 95.0034 173.901 94.5241L170.541 88.9871L174.489 83.6058Z" fill="#263238"/>
<path opacity="0.4" d="M174.282 84.3299L177.591 90.5629L174.441 94.2736L171.053 88.7694L174.282 84.3299Z" fill="#407BFF"/>
<path d="M183.74 108.344C183.768 108.484 183.787 108.616 183.806 108.747C183.731 108.653 183.656 108.55 183.581 108.447C182.596 109.094 181.573 109.666 180.504 110.173C180.748 108.269 181.02 106.552 181.264 105.117C181.48 103.804 181.677 102.725 181.827 101.965C181.967 101.205 182.061 100.765 182.08 100.69V100.68C182.408 100.736 182.736 100.84 183.065 100.999C184.5 101.703 185.916 103.382 187.295 105.605C186.187 106.618 185.005 107.537 183.74 108.344Z" fill="#407BFF"/>
<path d="M183.805 108.747C183.73 108.653 183.655 108.55 183.58 108.447C182.595 109.094 181.572 109.666 180.503 110.173C176.911 111.88 172.887 112.837 168.656 112.837C160.224 112.837 152.654 109.047 147.579 103.091C148.058 102.978 148.545 102.875 149.033 102.781C149.08 102.772 149.136 102.763 149.183 102.753C149.277 102.734 149.371 102.716 149.474 102.697C150.74 102.453 152.035 102.237 153.329 102.05C153.339 102.04 153.348 102.04 153.357 102.04C153.92 101.956 154.492 101.881 155.055 101.806C155.806 101.703 156.556 101.618 157.297 101.534C157.353 101.524 157.419 101.515 157.475 101.515C159.192 101.318 160.908 101.159 162.578 101.037C163.131 100.999 163.675 100.962 164.21 100.933H164.219C164.923 100.887 165.617 100.84 166.302 100.802C166.987 100.765 167.671 100.736 168.328 100.708C168.6 100.699 168.872 100.69 169.144 100.68C169.96 100.652 170.748 100.633 171.498 100.615C173.965 100.558 176.132 100.558 177.858 100.577C178.261 100.586 178.646 100.586 179.002 100.596C179.65 100.605 180.203 100.624 180.653 100.643C181.572 100.661 182.079 100.69 182.079 100.69C182.192 101.102 182.304 101.534 182.407 101.975C182.407 101.975 182.407 101.975 182.407 101.984C182.886 103.907 183.327 106.046 183.739 108.344C183.767 108.484 183.786 108.616 183.805 108.747Z" fill="#80A11D"/>
<path opacity="0.2" d="M183.805 108.747C183.73 108.653 183.655 108.55 183.58 108.447C182.595 109.094 181.572 109.666 180.503 110.173C176.911 111.88 172.887 112.837 168.656 112.837C160.224 112.837 152.654 109.047 147.579 103.091C147.354 103.138 147.129 103.185 146.904 103.232C147.12 103.185 147.345 103.128 147.57 103.081C148.058 102.978 148.545 102.875 149.033 102.781C149.08 102.772 149.136 102.763 149.183 102.753C149.277 102.734 149.371 102.716 149.474 102.697C150.74 102.453 152.035 102.237 153.329 102.05C153.339 102.04 153.348 102.04 153.357 102.04C153.92 101.956 154.492 101.881 155.055 101.806C155.806 101.703 156.556 101.618 157.297 101.534C157.353 101.524 157.419 101.515 157.475 101.515C159.192 101.318 160.908 101.159 162.578 101.037C163.122 100.999 163.666 100.962 164.201 100.924C164.914 100.877 165.608 100.84 166.302 100.802C166.987 100.765 167.671 100.736 168.328 100.708C168.6 100.699 168.872 100.69 169.144 100.68C169.951 100.652 170.739 100.624 171.489 100.605C173.965 100.558 176.132 100.558 177.858 100.568C178.271 100.577 178.646 100.577 179.002 100.586C179.64 100.596 180.184 100.615 180.634 100.624C181.563 100.652 182.079 100.68 182.079 100.68V100.69C182.192 101.102 182.304 101.534 182.407 101.975C182.407 101.975 182.407 101.975 182.407 101.984C182.886 103.907 183.326 106.046 183.739 108.344C183.767 108.484 183.786 108.616 183.805 108.747Z" fill="black"/>
<path d="M157.254 101.498C160.299 104.265 167.759 103.242 167.759 103.242C167.759 103.242 172.416 101.967 171.438 100.512C168.696 100.059 167.367 98.7789 166.819 97.1411C166.501 96.1872 166.453 95.1141 166.54 94.0082C166.579 93.4276 166.668 92.8395 166.771 92.2588L157.547 85.4293C158.756 89.9373 160.236 98.2301 157.254 101.498Z" fill="#EBB376"/>
<path opacity="0.2" d="M159.679 89.7703C160.045 95.3045 164.594 96.8306 166.819 97.1411C166.502 96.1872 166.454 95.1141 166.541 94.0082L159.679 89.7703Z" fill="black"/>
<path d="M175.595 72.2775C175.595 72.2775 176.904 80.8912 172.332 84.2042C167.76 87.5172 167.76 71.4821 167.76 71.4821L175.595 72.2775Z" fill="#263238"/>
<path d="M159.059 91.0498C161.278 94.238 164.896 95.0729 168.036 94.0795C170.056 93.4435 171.876 92.0441 173.006 90.032C173.157 89.7694 173.292 89.4918 173.419 89.2047C175.67 83.9416 176.385 74.7342 170.819 71.2833C166.867 68.7948 161.635 69.9795 159.147 73.9388C158.431 75.0597 158.001 76.3401 157.875 77.6683C157.191 83.8225 156.499 87.4085 159.059 91.0498Z" fill="#EBB376"/>
<path d="M166.846 80.9568C166.728 81.4437 166.952 81.8995 167.282 81.9549C167.612 82.0112 167.938 81.6482 168.025 81.1538C168.113 80.6595 167.911 80.2093 167.589 80.1558C167.267 80.1014 166.935 80.4541 166.846 80.9568Z" fill="#263238"/>
<path d="M172.463 81.9155C172.345 82.4023 172.577 82.86 172.9 82.9135C173.222 82.9679 173.555 82.6068 173.643 82.1125C173.73 81.6181 173.529 81.1679 173.206 81.1144C172.885 81.061 172.545 81.4446 172.463 81.9155Z" fill="#263238"/>
<path d="M170.636 81.8555C170.968 83.4763 171.523 85.0437 172.284 86.5126C171.509 86.8888 170.607 86.9028 169.82 86.5511L170.636 81.8555Z" fill="#D58745"/>
<path d="M165.413 78.8398C165.518 78.8736 165.634 78.8483 165.715 78.7742C166.252 78.2461 167.006 78.0022 167.75 78.1157C167.908 78.1541 168.067 78.0585 168.106 77.8999C168.145 77.7424 168.049 77.5829 167.891 77.5444H167.89C166.953 77.3765 165.993 77.6739 165.314 78.3408C165.192 78.4487 165.181 78.6344 165.289 78.7563C165.291 78.7582 165.291 78.7601 165.293 78.762C165.329 78.7939 165.369 78.8201 165.413 78.8398Z" fill="#263238"/>
<path d="M175.208 80.3913C175.259 80.4222 175.319 80.4372 175.378 80.4325C175.535 80.3894 175.626 80.228 175.584 80.0714C175.583 80.0695 175.583 80.0667 175.582 80.0648C175.337 79.1418 174.657 78.3961 173.762 78.066C173.606 78.0191 173.442 78.1063 173.395 78.262C173.352 78.4177 173.439 78.58 173.592 78.6306C174.292 78.912 174.817 79.5067 175.009 80.2365C175.049 80.3143 175.122 80.3706 175.208 80.3913Z" fill="#263238"/>
<path d="M163.652 70.8199V73.5692C162.705 73.934 162.048 74.8711 162.326 75.9883C162.923 78.3736 161.199 81.7495 159.279 82.9454C159.279 82.9454 159.346 81.9511 158.483 82.0843C157.622 82.2166 157.225 87.385 158.55 90.0358C158.55 90.0358 156.364 87.5182 155.635 81.9521C154.96 76.8043 155.308 72.6255 156.57 70.8208L163.652 70.8199Z" fill="#263238"/>
<path d="M154.353 82.2166C154.794 83.7127 155.811 84.9734 157.181 85.721C159 86.6984 160.36 85.1769 160.237 83.2231C160.11 81.4869 159.03 78.8323 157.015 78.6804C155 78.5284 153.836 80.3734 154.353 82.2166Z" fill="#EBB376"/>
<path d="M163.652 73.5692C163.652 73.5692 165.439 75.3401 167.172 74.0438C167.172 74.0438 169.134 75.6787 170.736 74.5184C170.736 74.5184 171.612 76.0005 173.048 76.1787C174.484 76.3569 174.489 74.8739 174.489 74.8739C174.489 74.8739 176.759 76.1787 177.597 75.569C178.436 74.9593 177.139 72.5196 177.139 72.5196C177.139 72.5196 178.207 71.9436 177.52 69.9823C176.835 68.0209 173.663 68.4786 173.663 68.4786C173.663 68.4786 173.785 66.6486 171.573 64.7426C169.362 62.8366 168.045 65.2003 168.045 65.2003C168.045 65.2003 165.903 62.3029 163.249 62.6846C160.595 63.0655 160.9 64.8955 160.9 64.8955C160.9 64.8955 157.85 62.9895 156.478 64.8955C155.106 66.8015 156.478 67.7161 156.478 67.7161C156.478 67.7161 153.429 68.7404 153.581 70.8208C153.733 72.9013 155.297 72.5965 155.297 72.5965C155.297 72.5965 154.419 73.5879 156.402 74.4265C158.384 75.2651 160.245 73.2071 160.245 73.2071C160.245 73.2071 159.473 74.388 160.9 75.1891C162.326 75.9883 163.652 73.5692 163.652 73.5692Z" fill="#263238"/>
<path d="M169.695 88.3971C168.983 88.9946 167.962 90.2618 167.962 90.2618C167.831 90.1896 167.698 90.1183 167.572 90.0395C165.813 89.0199 165.334 87.9666 165.337 87.1073C165.339 86.6374 165.493 86.2228 165.659 85.9095C165.848 85.5437 166.064 85.327 166.064 85.327C166.674 86.4245 168.241 87.5013 169.101 88.0407C169.458 88.2695 169.695 88.3971 169.695 88.3971Z" fill="#263238"/>
<path d="M169.1 88.0397L168.575 88.5762C166.92 87.612 165.885 86.7115 165.657 85.9085C165.846 85.5427 166.063 85.326 166.063 85.326C166.673 86.4235 168.24 87.5003 169.1 88.0397Z" fill="white"/>
<path d="M167.572 90.0395C165.813 89.0199 165.334 87.9665 165.337 87.1073C165.923 87.4778 166.588 87.99 167.065 88.6259C167.431 89.1118 167.554 89.6033 167.572 90.0395Z" fill="#DE5753"/>
<path d="M167.76 103.242C167.76 103.242 157.001 95.9311 153.576 95.5212C150.15 95.1113 150.761 99.3811 150.761 99.3811C150.761 99.3811 148.118 99.3801 149.135 102.633C150.151 105.886 164.765 107.68 170.165 106.072C175.565 104.463 178.773 101.435 177.88 98.5781C176.988 95.721 174.49 98.1682 174.49 98.1682C174.49 98.1682 173.038 95.4771 170.947 96.1065C168.855 96.7378 167.76 103.242 167.76 103.242Z" fill="#3B4811"/>
<path d="M190.587 102.022C189.602 103.307 188.504 104.507 187.294 105.605C186.187 106.618 185.006 107.537 183.739 108.344C183.767 108.484 183.786 108.616 183.805 108.747C183.73 108.653 183.655 108.55 183.58 108.447C182.867 107.49 182.041 106.327 181.263 105.117C180.287 103.56 179.396 101.937 179.002 100.596V100.586C178.871 100.164 178.796 99.7797 178.777 99.4233L177.886 98.1851L178.177 97.8474L180.541 95.071L181.057 94.4706L182.07 95.7932C182.07 95.7932 183.373 95.3242 187.548 98.9168C188.618 99.836 189.705 100.999 190.587 102.022Z" fill="#80A11D"/>
<path d="M89.52 288.456C104.47 288.456 116.589 276.336 116.589 261.387C116.589 246.437 104.47 234.318 89.52 234.318C74.5703 234.318 62.4512 246.437 62.4512 261.387C62.4512 276.336 74.5703 288.456 89.52 288.456Z" fill="#D5EF85"/>
<path opacity="0.7" d="M115.648 261.384C115.648 267.631 113.453 273.372 109.776 277.865C108.669 279.225 107.431 280.472 106.071 281.589C105.639 281.945 105.189 282.292 104.72 282.62C103.454 283.54 102.094 284.337 100.668 285.012C97.2819 286.616 93.5018 287.517 89.5153 287.517C84.7221 287.517 80.2291 286.222 76.3739 283.952C75.3796 283.38 74.4322 282.733 73.5317 282.029H73.5224C73.4755 281.992 73.4286 281.954 73.3817 281.907C72.3217 281.091 71.3274 280.172 70.427 279.187C66.0559 274.525 63.392 268.26 63.392 261.384C63.392 246.976 75.1076 235.251 89.5153 235.251C103.932 235.251 115.648 246.976 115.648 261.384Z" fill="white"/>
<path d="M106.071 281.589C105.64 281.945 105.189 282.292 104.72 282.62C103.454 283.54 102.094 284.337 100.668 285.012C97.282 286.616 93.5018 287.517 89.5153 287.517C84.7221 287.517 80.2291 286.222 76.3739 283.952C75.3796 283.38 74.4323 282.733 73.5318 282.029H73.5224C73.4755 281.992 73.4286 281.954 73.3817 281.907C73.4005 281.842 73.4098 281.795 73.4286 281.729V281.72C73.6537 280.876 73.8695 279.994 74.0664 279.075C74.3478 277.837 74.6011 276.551 74.8262 275.21C75.3984 271.74 75.7361 267.978 75.6142 264.161C75.1545 250.325 77.6684 245.25 83.3245 242.54C83.5778 242.418 83.8404 242.286 84.1218 242.174C85.4538 241.611 86.8045 241.508 88.1083 241.677C88.1083 241.677 88.1083 241.677 88.1177 241.677C92.9578 242.333 97.16 246.845 97.16 246.845C97.16 246.845 98.098 248.13 99.3737 250.588C101.662 255.006 105.03 263.213 105.874 274.45V274.46C106.052 276.72 106.127 279.093 106.071 281.589Z" fill="#263238"/>
<path d="M105.874 274.46V274.45C104.861 273.709 103.914 273.184 103.144 273.025C103.144 273.025 97.629 272.49 92.8358 272.527C92.3105 272.546 91.7759 272.574 91.2506 272.602C88.793 272.734 86.3355 272.987 83.9061 273.353C83.1932 273.456 82.4803 273.569 81.7768 273.7C79.4318 274.084 77.1149 274.591 74.8262 275.21C73.7288 275.501 72.6407 275.82 71.5526 276.167C71.1493 276.673 70.7834 277.733 70.427 279.187C71.3275 280.172 72.3218 281.091 73.3817 281.907C73.4286 281.954 73.4755 281.992 73.5224 282.029H73.5318C74.4323 282.733 75.3796 283.38 76.3739 283.952C80.2291 286.222 84.7221 287.517 89.5153 287.517C93.5018 287.517 97.2819 286.616 100.668 285.012C102.094 284.337 103.454 283.54 104.72 282.62C105.189 282.292 105.64 281.945 106.071 281.588C107.431 280.472 108.669 279.225 109.776 277.865C108.5 276.608 107.131 275.37 105.874 274.46Z" fill="#4D6011"/>
<path opacity="0.2" d="M105.874 274.46V274.45C104.861 273.709 103.914 273.184 103.144 273.025C103.144 273.025 97.629 272.49 92.8358 272.527C92.3105 272.546 91.7759 272.574 91.2506 272.602C88.793 272.734 86.3355 272.987 83.9061 273.353C83.1932 273.456 82.4803 273.569 81.7768 273.7C79.4318 274.084 77.1149 274.591 74.8262 275.21C73.7288 275.501 72.6407 275.82 71.5526 276.167C71.1493 276.673 70.7834 277.733 70.427 279.187C71.3275 280.172 72.3218 281.091 73.3817 281.907C73.4286 281.954 73.4755 281.992 73.5224 282.029H73.5318C74.4323 282.733 75.3796 283.38 76.3739 283.952C80.2291 286.222 84.7221 287.517 89.5153 287.517C93.5018 287.517 97.2819 286.616 100.668 285.012C102.094 284.337 103.454 283.54 104.72 282.62C105.189 282.292 105.64 281.945 106.071 281.588C107.431 280.472 108.669 279.225 109.776 277.865C108.5 276.608 107.131 275.37 105.874 274.46Z" fill="#BEF810"/>
<path d="M90.8079 277.974C84.7334 277.195 82.9071 274.598 82.9071 274.598C85.39 272.259 84.9397 268.805 84.3057 266.651C83.9614 265.459 83.5571 264.664 83.5571 264.664L90.8698 266.032C90.6784 267.239 90.595 268.256 90.5874 269.111C90.5724 270.051 90.6559 270.792 90.7938 271.373C91.2909 273.558 92.5357 273.588 92.5357 273.588C93.8179 275.988 90.8079 277.974 90.8079 277.974Z" fill="#EEC1BB"/>
<path opacity="0.2" d="M90.5855 269.111C90.5705 270.051 90.654 270.792 90.7919 271.373C87.8888 270.991 85.6882 268.668 84.3047 266.651C83.9604 265.459 83.5562 264.664 83.5562 264.664L90.8688 266.032C90.6774 267.239 90.593 268.256 90.5855 269.111Z" fill="black"/>
<path d="M89.3783 245.786C95.737 246.021 97.6571 249.502 97.8803 256.072C98.1589 264.282 96.1272 270.033 88.2415 267.989C77.5323 265.213 78.8192 245.394 89.3783 245.786Z" fill="#EEC1BB"/>
<path d="M93.7832 255.564C93.7832 255.564 94.603 257.258 95.5354 258.27C95.5354 258.27 94.9585 259.114 93.8329 258.927L93.7832 255.564Z" fill="#D4827D"/>
<path d="M87.2163 251.697C87.1384 251.697 87.0605 251.671 86.9977 251.616C86.8598 251.495 86.8457 251.285 86.9667 251.147C88.0914 249.864 89.9862 250.166 90.065 250.18C90.245 250.21 90.367 250.38 90.337 250.56C90.3079 250.741 90.1391 250.863 89.9552 250.834C89.9402 250.832 88.3437 250.585 87.4658 251.585C87.4001 251.66 87.3082 251.697 87.2163 251.697Z" fill="#263238"/>
<path d="M97.1563 251.359C97.0897 251.359 97.0212 251.338 96.9631 251.296C95.7549 250.425 94.7841 250.714 94.7438 250.726C94.5674 250.78 94.3836 250.685 94.3273 250.511C94.2719 250.336 94.3657 250.151 94.5383 250.095C94.5918 250.075 95.8553 249.68 97.3514 250.757C97.5005 250.864 97.5334 251.072 97.4264 251.221C97.3608 251.31 97.2595 251.358 97.1563 251.359Z" fill="#263238"/>
<path d="M92.8133 261.394C92.4175 262.148 91.9898 263.575 91.9898 263.575C91.8528 263.56 91.7168 263.544 91.5817 263.522C89.7376 263.266 88.9666 262.538 88.6711 261.809C88.5107 261.409 88.4976 261.005 88.5295 260.681C88.5623 260.306 88.6721 260.047 88.6721 260.047C89.5688 260.767 91.2694 261.138 92.1858 261.298C92.5685 261.368 92.8133 261.394 92.8133 261.394Z" fill="#263238"/>
<path d="M92.1867 261.298L91.9269 261.935C90.1907 261.69 89.0013 261.284 88.5304 260.681C88.5632 260.306 88.673 260.047 88.673 260.047C89.5697 260.767 91.2703 261.137 92.1867 261.298Z" fill="white"/>
<path d="M91.5808 263.522C89.7367 263.266 88.9656 262.538 88.6702 261.809C89.2949 261.921 90.0359 262.124 90.6615 262.498C91.1409 262.784 91.4148 263.158 91.5808 263.522Z" fill="#DE5753"/>
<path d="M82.0319 256.245C82.0319 256.245 85.1986 251.131 84.8975 247.08C84.8975 247.08 97.689 242.4 97.8363 255.213C97.8363 255.213 99.489 243.902 88.567 243.243C77.6627 242.586 77.099 258.577 82.5675 263.552C82.5675 263.552 80.0715 259.444 82.0319 256.245Z" fill="#263238"/>
<path d="M83.0206 257.625C83.0159 256.6 82.0235 254.828 80.1119 254.965C78.1336 255.107 77.0446 259.118 81.9091 260.272C82.6079 260.438 83.03 259.765 83.0206 257.625Z" fill="#EEC1BB"/>
<path d="M85.8074 241.584C89.2461 240.629 98.415 240.501 100.58 249.989L99.3061 250.626C99.3061 250.626 96.2501 248.971 92.4297 248.589C92.4297 248.589 91.6652 247.188 90.6465 246.042C90.6465 246.042 90.7741 247.57 90.6465 248.461C90.6465 248.461 84.6658 249.337 81.9869 251.772C77.7847 255.593 77.5295 258.012 77.5295 258.012C77.5295 258.012 74.6161 244.692 85.8074 241.584Z" fill="#263238"/>
<path d="M101.472 249.899C101.376 249.899 101.286 249.839 101.254 249.743C100.167 246.48 98.3063 244.182 95.723 242.911C91.0086 240.591 85.4304 242.481 85.3741 242.5C85.255 242.545 85.1236 242.479 85.0824 242.36C85.0411 242.24 85.1039 242.109 85.224 242.068C85.2822 242.047 91.0405 240.095 95.9256 242.499C98.6233 243.827 100.562 246.216 101.691 249.597C101.731 249.717 101.665 249.848 101.545 249.887C101.52 249.895 101.495 249.899 101.472 249.899Z" fill="#263238"/>
<path d="M88.1637 254.906C88.1637 254.906 89.6523 253.64 90.3577 255.343C90.3577 255.343 89.2602 254.784 88.1637 254.906Z" fill="#263238"/>
<path d="M95.2362 255.847C95.2362 255.847 96.0607 254.122 97.1563 255.343C97.1563 255.343 95.8994 255.377 95.2362 255.847Z" fill="#263238"/>
<path opacity="0.7" d="M383.219 307.605C383.219 312.867 381.972 317.838 379.739 322.247C379.298 323.129 378.811 323.982 378.295 324.817C377.891 325.464 377.469 326.102 377.01 326.721C375.105 329.357 372.807 331.693 370.209 333.653C369.618 334.103 369.008 334.525 368.38 334.938C365.876 336.58 363.127 337.874 360.21 338.775C357.171 339.713 353.954 340.219 350.614 340.219C345.812 340.219 341.244 339.178 337.135 337.302C336.61 337.058 336.085 336.805 335.569 336.542V336.533C332.652 335.013 329.988 333.053 327.671 330.755C325.401 328.513 323.459 325.933 321.921 323.11C321.489 322.303 321.086 321.468 320.72 320.624H320.711C318.966 316.638 318 312.229 318 307.605C318 289.633 332.633 275 350.614 275C368.596 275 383.219 289.633 383.219 307.605Z" fill="#D5EF85"/>
<path d="M334.409 306.599C333.987 307.406 332.393 309.038 332.393 309.038L329.579 322.348L327.74 331.034C325.47 328.792 323.528 326.213 321.99 323.39C322.215 322.686 322.459 321.954 322.694 321.213C324.682 315.041 326.971 307.894 327.14 307.19C327.44 305.933 326.342 299.771 326.596 298.636C326.858 297.51 332.477 296.178 333.696 296.197C334.916 296.216 334.822 305.802 334.409 306.599Z" fill="#9F5B53"/>
<path d="M338.808 321.26C338.808 321.26 338.808 321.279 338.799 321.307L337.617 333.436L337.204 337.582C336.679 337.338 336.154 337.084 335.638 336.822V336.812C332.721 335.293 330.057 333.332 327.74 331.034C325.47 328.793 323.528 326.213 321.99 323.39C321.559 322.583 321.155 321.748 320.789 320.904L322.694 321.213L329.578 322.348L331.061 322.592L329.325 331.006C329.325 331.006 335.638 322.217 338.808 321.26Z" fill="#405500"/>
<path opacity="0.3" d="M338.808 321.26C338.808 321.26 338.808 321.279 338.799 321.307L337.617 333.436L337.204 337.582C336.679 337.338 336.154 337.084 335.638 336.822V336.812C332.721 335.293 330.057 333.332 327.74 331.034C325.47 328.793 323.528 326.213 321.99 323.39C321.559 322.583 321.155 321.748 320.789 320.904L322.694 321.213L329.578 322.348L331.061 322.592L329.325 331.006C329.325 331.006 335.638 322.217 338.808 321.26Z" fill="#DFFF7E"/>
<path d="M379.808 322.527C379.367 323.408 378.88 324.262 378.364 325.097C377.96 325.744 377.538 326.382 377.079 327.001C375.175 329.637 372.877 331.972 370.278 333.933C369.687 334.383 369.078 334.805 368.449 335.218C365.945 336.859 363.196 338.154 360.279 339.054C357.24 339.992 354.023 340.499 350.683 340.499C345.881 340.499 341.313 339.458 337.204 337.582C336.679 337.338 336.154 337.084 335.638 336.822V336.812C336.951 327.442 338.63 321.851 338.799 321.307C338.808 321.279 338.808 321.26 338.808 321.26C342.185 320.294 345.637 319.591 349.126 319.159C349.183 319.159 349.23 319.15 349.286 319.15C349.295 319.15 349.295 319.15 349.295 319.15C354.304 318.756 359.351 318.643 364.388 318.831H364.435C367.924 318.925 371.395 319.262 374.837 319.863C375.287 320.05 377.595 321.007 379.808 322.527Z" fill="#425800"/>
<path opacity="0.3" d="M379.808 322.527C379.367 323.408 378.88 324.262 378.364 325.097C377.96 325.744 377.538 326.382 377.079 327.001C375.175 329.637 372.877 331.972 370.278 333.933C369.687 334.383 369.078 334.805 368.449 335.218C365.945 336.859 363.196 338.154 360.279 339.054C357.24 339.992 354.023 340.499 350.683 340.499C345.881 340.499 341.313 339.458 337.204 337.582C336.679 337.338 336.154 337.084 335.638 336.822V336.812C336.951 327.442 338.63 321.851 338.799 321.307C338.808 321.279 338.808 321.26 338.808 321.26C342.185 320.294 345.637 319.591 349.126 319.159C349.183 319.159 349.23 319.15 349.286 319.15C349.295 319.15 349.295 319.15 349.295 319.15C354.304 318.756 359.351 318.643 364.388 318.831H364.435C367.924 318.925 371.395 319.262 374.837 319.863C375.287 320.05 377.595 321.007 379.808 322.527Z" fill="#DFFF7E"/>
<path opacity="0.8" d="M370.278 333.933C369.687 334.383 369.078 334.805 368.449 335.218C365.945 336.859 363.196 338.154 360.279 339.054C357.24 339.992 354.023 340.499 350.683 340.499C345.881 340.499 341.313 339.458 337.204 337.582C336.679 337.338 336.154 337.084 335.638 336.822V336.812C335.685 336.54 335.722 336.268 335.76 336.006C336.304 335.161 336.923 334.299 337.617 333.436C340.975 329.149 345.703 324.825 348.095 322.733C348.761 323.558 349.896 324.262 351.743 324.628C354.82 325.228 358.338 323.793 361.255 322.058C362.568 323.361 364.547 325.434 366.367 327.695C367.736 329.402 369.003 331.212 369.828 332.892C369.997 333.248 370.147 333.595 370.278 333.933Z" fill="white"/>
<path d="M364.435 318.874C364.435 318.874 360.614 323.588 353.328 323.914C347.011 324.193 349.123 319.201 349.123 319.201C351.436 318.595 352.723 317.511 353.376 316.186C354.192 314.487 353.951 312.384 353.433 310.32C353.394 310.176 353.356 310.032 353.317 309.888L362.543 301.671C361.689 306.615 360.922 315.659 364.435 318.874Z" fill="#9F5B53"/>
<path opacity="0.2" d="M361.027 308.919C360.537 312.087 356.688 315.208 353.375 316.186C354.192 314.487 353.951 312.384 353.433 310.321L361.074 304.465C361.334 305.944 361.324 307.45 361.027 308.919Z" fill="black"/>
<path d="M355.049 291.001C357.239 293.474 355.255 296.212 348.048 299.448C346.421 295.672 347.581 289.442 349.908 288.395C352.236 287.347 353.137 288.856 355.049 291.001Z" fill="#263238"/>
<path d="M365.179 298.842C363.24 305.241 362.427 309.079 358.364 311.637C352.244 315.479 344.933 310.608 344.919 303.755C344.916 297.603 348.082 288.167 355.048 287.094C360.022 286.302 364.696 289.692 365.488 294.665C365.71 296.063 365.605 297.492 365.179 298.842Z" fill="#9F5B53"/>
<path d="M355.061 298.322C354.935 298.851 354.552 299.213 354.208 299.129C353.863 299.046 353.688 298.558 353.814 298.03C353.939 297.502 354.315 297.14 354.66 297.216C355.004 297.291 355.148 297.793 355.061 298.322Z" fill="#263238"/>
<path d="M349.051 296.906C348.926 297.434 348.542 297.796 348.198 297.713C347.854 297.629 347.671 297.142 347.796 296.605C347.922 296.069 348.306 295.715 348.65 295.798C348.994 295.883 349.177 296.378 349.051 296.906Z" fill="#263238"/>
<path d="M350.953 297.62C349.94 299.086 348.729 300.406 347.354 301.542C348.102 302.641 349.772 302.612 349.772 302.612L350.953 297.62Z" fill="#892B29"/>
<path d="M357.151 296.817C357.218 296.841 357.291 296.843 357.358 296.821C357.52 296.75 357.596 296.564 357.528 296.401C357.138 295.448 356.308 294.747 355.303 294.521C355.137 294.487 354.974 294.594 354.94 294.761C354.938 294.768 354.937 294.776 354.936 294.783C354.914 294.956 355.028 295.115 355.198 295.15C355.986 295.341 356.634 295.901 356.938 296.653C356.983 296.734 357.06 296.794 357.151 296.817Z" fill="#263238"/>
<path d="M346.796 294.233C346.916 294.26 347.042 294.218 347.121 294.124C347.616 293.48 348.389 293.112 349.201 293.134C349.377 293.15 349.533 293.023 349.553 292.848C349.57 292.676 349.447 292.52 349.275 292.497C348.247 292.453 347.262 292.909 346.629 293.722C346.519 293.856 346.537 294.055 346.671 294.165L346.674 294.168C346.71 294.197 346.751 294.219 346.796 294.233Z" fill="#263238"/>
<path d="M363.957 292.473C360.675 292.794 360.271 296.155 363.36 303.421C367.123 301.756 370.511 296.392 369.503 294.049C368.494 291.708 366.824 292.198 363.957 292.473Z" fill="#263238"/>
<path d="M367.041 304.769C366.216 306.236 364.843 307.316 363.223 307.772C361.074 308.353 360.018 306.426 360.627 304.407C361.178 302.588 362.965 300.092 365.112 300.403C367.258 300.713 368.045 302.966 367.041 304.769Z" fill="#9F5B53"/>
<path d="M357.651 289.769C357.651 289.769 356.963 296.497 363.099 298.501C369.234 300.503 371.562 296.99 371.562 296.99C371.562 296.99 370.566 296.887 369.994 296.726C369.994 296.726 372.621 294.044 371.574 290.537C370.526 287.029 365.112 282.273 360.078 282.727C360.078 282.727 356.093 279.934 351.124 281.344C346.156 282.754 345.527 288.422 345.527 288.422C345.527 288.422 346.183 285.049 348.437 284.633C348.437 284.633 344.194 290.843 347.473 293.622C347.473 293.622 349.562 286.982 357.651 289.769Z" fill="#263238"/>
<path d="M348.619 305.047C349.172 305.82 349.865 307.335 349.865 307.335C350.014 307.296 350.162 307.259 350.308 307.213C352.31 306.647 353.052 305.723 353.268 304.871C353.384 304.404 353.336 303.954 353.251 303.601C353.157 303.191 352.996 302.92 352.996 302.92C352.114 303.854 350.288 304.525 349.298 304.843C348.885 304.98 348.619 305.047 348.619 305.047Z" fill="#263238"/>
<path d="M349.298 304.844L349.683 305.509C351.567 304.971 352.821 304.34 353.25 303.602C353.156 303.192 352.995 302.921 352.995 302.921C352.114 303.854 350.289 304.526 349.298 304.844Z" fill="white"/>
<path d="M350.308 307.213C352.31 306.647 353.052 305.723 353.268 304.871C352.593 305.089 351.803 305.429 351.169 305.939C350.682 306.328 350.437 306.784 350.308 307.213Z" fill="#DE5753"/>
<path d="M251.331 149.995L238.482 149.38C236.571 149.289 235.096 147.666 235.187 145.756L235.802 132.906C235.893 130.995 237.517 129.521 239.427 129.612L252.277 130.226C254.188 130.318 255.662 131.941 255.571 133.852L254.957 146.701C254.865 148.611 253.242 150.086 251.331 149.995Z" fill="#849848"/>
<path opacity="0.6" d="M251.008 136.173C249.72 133.839 247.011 134.582 245.549 136.278C244.254 134.451 241.629 133.452 240.124 135.653C237.588 139.362 242.269 143.136 244.494 144.632C244.747 144.804 244.955 144.945 245.129 145.057C245.313 144.962 245.535 144.841 245.802 144.695C248.158 143.417 253.178 140.108 251.008 136.173Z" fill="white"/>
<path d="M247.105 148.258C247.105 148.258 244.227 154.065 238.331 155.64C238.331 155.64 241.632 153.941 241.68 147.751L247.105 148.258Z" fill="#849848"/>
<path d="M262.177 209.479C262.177 209.479 269.623 202.028 272.023 196.724C272.023 196.724 271.117 193.757 271.967 192.223C272.818 190.69 277.777 186.281 279.102 187.215C280.425 188.15 282.343 191.846 281.55 193.397C280.757 194.946 275.894 198.119 275.894 198.119C275.894 198.119 269.865 210.21 266.131 212.94C262.396 215.669 262.177 209.479 262.177 209.479Z" fill="#EBB376"/>
<path d="M243.345 187.087C247.684 187.652 252.631 208.68 256.095 210.659C259.558 212.638 268.546 201.015 268.546 201.015L272.669 205.718C272.669 205.718 260.795 222.264 256.095 220.79C251.394 219.317 242.555 202.99 242.555 202.99L243.345 187.087Z" fill="#FFFEF2"/>
<path opacity="0.05" d="M243.345 187.087C247.684 187.652 252.631 208.68 256.095 210.659C259.558 212.638 268.546 201.015 268.546 201.015L272.669 205.718C272.669 205.718 260.795 222.264 256.095 220.79C251.394 219.317 242.555 202.99 242.555 202.99L243.345 187.087Z" fill="white"/>
<path d="M269.668 381.056L263.97 382.062L261.634 374.294L259.501 367.164L266.071 364.87L267.978 373.438L269.668 381.056Z" fill="#EBB376"/>
<path d="M262.685 381.912C262.588 381.282 270.393 380.411 270.393 380.411C270.393 380.411 275.992 384.403 280.797 384.673C285.6 384.944 283.511 388.166 278.357 389.076C273.203 389.986 269.269 390.681 265.606 391.327C261.944 391.974 263.682 388.45 262.685 381.912Z" fill="#263238"/>
<path d="M274.227 381.714C273.161 381.714 271.8 381.36 271.431 381.257C271.406 381.25 271.383 381.239 271.363 381.224C271.343 381.209 271.325 381.19 271.311 381.167V381.166C271.301 381.151 271.294 381.134 271.288 381.117V381.116C271.28 381.085 271.278 381.053 271.283 381.023C271.298 380.935 271.629 379.024 272.597 378.405C272.904 378.207 273.241 378.159 273.6 378.256C273.98 378.36 274.19 378.55 274.221 378.816C274.27 379.226 273.792 379.73 273.223 380.176C273.865 379.998 274.536 379.898 274.987 380.059C275.227 380.146 275.396 380.297 275.491 380.508C275.688 380.946 275.578 381.215 275.449 381.365C275.228 381.623 274.765 381.714 274.227 381.714ZM272.114 381.002C273.337 381.284 274.825 381.459 275.136 381.095C275.163 381.063 275.246 380.968 275.114 380.679C275.066 380.571 274.978 380.496 274.846 380.448C274.235 380.227 272.945 380.657 272.114 381.002ZM273.252 378.621C273.101 378.621 272.957 378.665 272.819 378.754C272.291 379.092 271.951 380.017 271.787 380.647C272.854 380.01 273.852 379.216 273.811 378.865C273.797 378.755 273.604 378.687 273.49 378.656C273.408 378.633 273.329 378.621 273.252 378.621Z" fill="#255C46"/>
<path opacity="0.2" d="M268.009 373.615L261.662 374.45L259.516 367.242L266.078 364.908L268.009 373.615Z" fill="black"/>
<path d="M231.632 383.497H225.846L224.896 375.441L224.036 368.05L230.904 366.932L231.293 375.703L231.632 383.497Z" fill="#EBB376"/>
<path d="M224.606 383.127C224.621 382.489 232.457 382.989 232.457 382.989C232.457 382.989 237.278 387.893 241.961 388.995C246.644 390.097 244.027 392.908 238.793 392.908C233.559 392.908 229.564 392.908 225.845 392.908C222.127 392.907 224.451 389.738 224.606 383.127Z" fill="#263238"/>
<path d="M236.581 384.995C235.486 384.995 233.746 384.197 233.333 384.001C233.306 383.989 233.282 383.97 233.264 383.948H233.263C233.252 383.935 233.243 383.92 233.235 383.905C233.212 383.856 233.207 383.8 233.227 383.746C233.254 383.668 233.913 381.839 234.976 381.397C235.312 381.257 235.654 381.267 235.99 381.424C236.347 381.594 236.519 381.816 236.504 382.084C236.481 382.496 235.922 382.909 235.285 383.249C235.948 383.183 236.626 383.202 237.043 383.441C237.263 383.568 237.405 383.747 237.461 383.971C237.579 384.435 237.424 384.682 237.272 384.807C237.11 384.94 236.867 384.995 236.581 384.995ZM234.05 383.87C235.204 384.359 236.64 384.791 237.01 384.487C237.042 384.46 237.14 384.38 237.062 384.072C237.033 383.958 236.959 383.869 236.837 383.799C236.273 383.475 234.93 383.675 234.05 383.87ZM235.452 381.712C235.347 381.712 235.242 381.734 235.135 381.778C234.556 382.019 234.061 382.871 233.79 383.463C234.951 383.022 236.072 382.412 236.093 382.06C236.099 381.95 235.921 381.848 235.813 381.798C235.692 381.741 235.572 381.712 235.452 381.712Z" fill="#255C46"/>
<path opacity="0.2" d="M231.293 375.881L224.896 375.6L224.036 368.129L230.904 366.972L231.293 375.881Z" fill="black"/>
<path d="M268.546 369.094L259.18 370.744C249.728 347.197 243.005 327.541 238.258 311.229C235.701 302.428 233.707 294.601 232.177 287.656L232.604 313.29V371.522H223.093C199.956 261.182 216.353 235.967 216.353 235.967L244.032 231.237C245.084 235.368 245.88 242.065 246.35 246.727L247.598 255.879L258.418 311.75L268.546 369.094Z" fill="#476F5E"/>
<path d="M257.712 369.587L269.329 365.736L269.172 370.677L259.563 373.741L257.712 369.587Z" fill="#255C46"/>
<path d="M221.851 370.124L233.962 368.352L232.948 373.191L222.953 374.538L221.851 370.124Z" fill="#255C46"/>
<path d="M241.537 175.582C241.496 175.582 241.453 175.571 241.416 175.549C237.885 173.416 234.736 165.581 234.603 165.249C234.555 165.129 234.614 164.993 234.734 164.944C234.855 164.899 234.991 164.955 235.039 165.076C235.071 165.156 238.262 173.095 241.659 175.147C241.769 175.214 241.805 175.358 241.739 175.469C241.694 175.542 241.617 175.582 241.537 175.582Z" fill="#263238"/>
<path d="M213.145 155.004C213.145 155.004 214.522 150.324 223.711 149.524C232.901 148.725 237.475 157.782 235.308 164.511C235.308 164.511 237.241 173.673 240.95 176.36C240.95 176.36 223.266 184.354 214.334 184.399C212.347 184.408 208.1 174.544 207.552 167.432C207.025 160.585 209.092 155.222 213.145 155.004Z" fill="#263238"/>
<path d="M216.353 231.831V235.964L244.579 233.799V228.912L216.353 231.831Z" fill="#263238"/>
<path opacity="0.3" d="M216.353 231.831V235.964L244.579 233.799V228.912L216.353 231.831Z" fill="white"/>
<path d="M238.049 229.917L231.877 230.47L232.296 235.151L238.468 234.598L238.049 229.917Z" fill="white"/>
<path d="M225.839 230.086L224.44 230.157L224.804 237.289L226.204 237.218L225.839 230.086Z" fill="#80A11D" fill-opacity="0.9"/>
<path d="M243.065 228.208L241.666 228.279L242.029 235.411L243.429 235.339L243.065 228.208Z" fill="#80A11D" fill-opacity="0.9"/>
<path d="M244.696 229.409L216.462 231.848C216.19 227.58 215.918 223.922 215.271 219.823C214.858 217.197 214.286 214.383 213.461 211.109C212.823 208.548 212.026 205.697 211.013 202.433C210.966 202.254 210.909 202.076 210.853 201.898C210.271 200.031 206.135 201.457 205.76 199.215C204.128 189.235 214.896 188.503 218.864 187.847C223.047 187.106 227.296 186.655 231.545 186.515C237.033 186.468 243.345 187.087 243.345 187.087C243.345 187.087 244.246 187.303 244.809 193.128C245.325 198.587 245.831 209.524 244.696 229.409Z" fill="#FFFEF2"/>
<path d="M229.213 192.746C222.255 191.856 220.165 188.883 220.165 188.883C224.58 184.718 220.911 177.501 220.911 177.501L229.287 179.064C229.066 180.448 228.972 181.609 228.959 182.59C228.895 187.673 231.194 187.723 231.194 187.723C232.664 190.477 229.213 192.746 229.213 192.746Z" fill="#EBB376"/>
<path opacity="0.2" d="M229.287 179.064C229.066 180.448 228.972 181.609 228.959 182.59C223.302 182.59 220.911 177.501 220.911 177.501L229.287 179.064Z" fill="black"/>
<path d="M222.865 155.624C229.976 154.013 233.128 157.302 235.308 164.512C238.033 173.522 237.475 180.489 228.141 180.546C215.465 180.625 211.056 158.298 222.865 155.624Z" fill="#EBB376"/>
<path d="M230.621 165.156C230.621 165.156 232.027 166.79 233.358 167.637C233.358 167.637 232.969 168.741 231.666 168.865L230.621 165.156Z" fill="#D58745"/>
<path d="M226.137 165.56C226.283 166.141 226.087 166.691 225.7 166.789C225.312 166.886 224.88 166.494 224.734 165.913C224.588 165.332 224.784 164.781 225.172 164.685C225.559 164.586 225.991 164.978 226.137 165.56Z" fill="#263238"/>
<path d="M225.017 164.752L226.155 163.939C226.155 163.939 225.794 165.16 225.017 164.752Z" fill="#263238"/>
<path d="M233.33 163.624C233.477 164.204 233.281 164.755 232.893 164.852C232.506 164.949 232.073 164.557 231.927 163.975C231.781 163.395 231.977 162.844 232.364 162.748C232.752 162.651 233.184 163.043 233.33 163.624Z" fill="#263238"/>
<path d="M232.209 162.817L233.348 162.004C233.348 162.004 232.987 163.225 232.209 162.817Z" fill="#263238"/>
<path d="M222.113 162.779C222.062 162.779 222.011 162.767 221.963 162.743C221.794 162.659 221.725 162.456 221.809 162.288C222.666 160.556 224.83 160.335 224.922 160.327C225.105 160.309 225.274 160.447 225.292 160.632C225.309 160.819 225.173 160.985 224.986 161.003C224.967 161.005 223.105 161.201 222.418 162.589C222.359 162.709 222.238 162.779 222.113 162.779Z" fill="#263238"/>
<path d="M230.056 159.533C229.944 159.533 229.834 159.478 229.769 159.377C229.668 159.22 229.712 159.011 229.868 158.908C229.921 158.875 231.187 158.074 233.141 158.818C233.316 158.885 233.404 159.081 233.337 159.256C233.27 159.432 233.073 159.521 232.899 159.453C231.282 158.837 230.279 159.452 230.237 159.48C230.181 159.515 230.118 159.533 230.056 159.533Z" fill="#263238"/>
<path d="M231.263 171.897C231.046 172.847 230.993 174.554 230.993 174.554C230.837 174.578 230.681 174.6 230.525 174.615C228.408 174.875 227.339 174.295 226.798 173.575C226.503 173.179 226.369 172.736 226.309 172.368C226.236 171.943 226.28 171.623 226.28 171.623C227.485 172.156 229.477 172.066 230.54 171.974C230.985 171.94 231.263 171.897 231.263 171.897Z" fill="#263238"/>
<path d="M230.54 171.975L230.44 172.756C228.445 172.995 227.009 172.897 226.31 172.369C226.237 171.944 226.281 171.624 226.281 171.624C227.485 172.157 229.477 172.068 230.54 171.975Z" fill="white"/>
<path d="M230.525 174.616C228.408 174.876 227.339 174.296 226.798 173.576C227.523 173.515 228.404 173.522 229.206 173.753C229.82 173.928 230.234 174.262 230.525 174.616Z" fill="#DE5753"/>
<path d="M217.808 169.369C217.808 169.369 219.81 162.773 218.285 158.377C218.285 158.377 231.073 149.428 235.007 163.574C235.007 163.574 233.508 150.561 221.219 153.047C208.95 155.529 213.033 173.404 220.553 177.304C220.553 177.304 216.579 173.489 217.808 169.369Z" fill="#263238"/>
<path d="M219.31 170.606C219.003 169.472 217.382 167.802 215.306 168.516C213.157 169.256 213.131 174.018 218.859 173.864C219.681 173.842 219.95 172.973 219.31 170.606Z" fill="#EBB376"/>
<path d="M218.285 158.377C218.285 158.377 225.654 155.665 229.802 157.709C229.802 157.709 225.331 153.696 217.761 157.473L218.285 158.377Z" fill="#263238"/>
<path d="M213.713 189.655C213.713 189.655 221.883 196.284 229.488 196.177C237.095 196.07 239.767 187.516 239.767 187.516C239.767 187.516 227.971 184.024 213.713 189.655Z" fill="#EBB376"/>
<path opacity="0.2" d="M238.258 311.229C235.701 302.428 233.707 294.601 232.177 287.656C232.177 287.656 232.33 274.159 233.964 263.073C233.964 263.073 238.018 294.782 238.258 311.229Z" fill="black"/>
<path d="M190.856 204.341C190.856 204.341 185.258 195.417 184.102 189.712C184.102 189.712 185.647 187.022 185.16 185.338C184.673 183.653 180.821 178.249 179.323 178.864C177.824 179.48 175.131 182.656 175.558 184.344C175.985 186.032 180.018 190.209 180.018 190.209C180.018 190.209 183.198 203.341 186.23 206.834C189.261 210.326 190.856 204.341 190.856 204.341Z" fill="#EBB376"/>
<path d="M206.1 194.322C208.947 193.928 214.689 199.482 213.815 204.286C212.941 209.09 204.897 222.594 198.69 221.543C189.92 220.059 180.283 196.942 180.283 196.942L185.095 192.747C185.095 192.747 196.451 212.418 198.69 212.033C200.928 211.647 206.1 194.322 206.1 194.322Z" fill="#FFFEF2"/>
<path opacity="0.05" d="M206.1 194.322C208.947 193.928 214.689 199.482 213.815 204.286C212.941 209.09 204.897 222.594 198.69 221.543C189.92 220.059 180.283 196.942 180.283 196.942L185.095 192.747C185.095 192.747 196.451 212.418 198.69 212.033C200.928 211.647 206.1 194.322 206.1 194.322Z" fill="white"/>
<path d="M178.318 195.528L185.342 191.313L186.456 193.13L179.827 198.997L178.318 195.528Z" fill="#EAE28A" fill-opacity="0.8"/>
<path d="M266.979 200.887L272.669 207.927L273.659 205.718L268.546 199.773L266.979 200.887Z" fill="#EAE28A" fill-opacity="0.8"/>
<path d="M269.823 191.36L278.815 180.408C279.126 180.028 279.695 179.993 280.051 180.33L284.059 184.113C284.382 184.418 284.415 184.92 284.134 185.264L275.004 196.468C274.682 196.863 274.087 196.886 273.736 196.519L269.866 192.484C269.569 192.175 269.55 191.692 269.823 191.36Z" fill="#407BFF"/>
<path opacity="0.3" d="M269.823 191.36L278.815 180.408C279.126 180.028 279.695 179.993 280.051 180.33L284.059 184.113C284.382 184.418 284.415 184.92 284.134 185.264L275.004 196.468C274.682 196.863 274.087 196.886 273.736 196.519L269.866 192.484C269.569 192.175 269.55 191.692 269.823 191.36Z" fill="black"/>
<path d="M269.461 190.92L278.453 179.968C278.764 179.589 279.333 179.553 279.689 179.89L283.697 183.674C284.02 183.978 284.053 184.481 283.772 184.825L274.642 196.029C274.32 196.424 273.725 196.447 273.373 196.079L269.504 192.044C269.207 191.734 269.189 191.252 269.461 190.92Z" fill="#407BFF"/>
<path opacity="0.6" d="M278.815 180.408L283.259 184.707L274.564 195.404L270.237 190.86L278.815 180.408Z" fill="white"/>
</svg>
